<?xml version="1.0" standalone="no"?>
<!DOCTYPE svg PUBLIC "-//W3C//DTD SVG 20010904//EN"
 "http://www.w3.org/TR/2001/REC-SVG-20010904/DTD/svg10.dtd">
<svg version="1.0" xmlns="http://www.w3.org/2000/svg"
 width="100.000000pt" height="100.000000pt" viewBox="0 0 100.000000 100.000000"
 preserveAspectRatio="xMidYMid meet">

<g transform="translate(0.000000,100.000000) scale(0.100000,-0.100000)"
fill="#000000" stroke="none">
<path d="M97 983 c-4 -3 -7 -33 -7 -65 l0 -58 395 0 395 0 0 59 c0 44 -4 60
-16 65 -21 8 -759 8 -767 -1z m68 -52 c7 -12 -12 -24 -25 -16 -11 7 -4 25 10
25 5 0 11 -4 15 -9z m133 -9 c2 -7 -3 -12 -12 -12 -9 0 -16 7 -16 16 0 17 22
14 28 -4z"/>
<path d="M425 698 c-2 -7 -6 -51 -7 -98 l-3 -85 -42 -3 -43 -3 0 50 c0 77 -8
81 -161 81 -170 0 -169 1 -169 -150 0 -151 -1 -150 169 -150 152 0 161 4 161
81 l0 49 38 0 c21 0 48 7 60 16 20 14 22 23 22 114 0 56 -4 102 -10 105 -6 3
-12 0 -15 -7z m-130 -208 l0 -115 -130 0 -130 0 -3 104 c-1 58 0 111 2 118 4
11 33 13 133 11 l128 -3 0 -115z"/>
<path d="M77 573 c-4 -3 -7 -12 -7 -20 0 -10 22 -13 94 -13 92 0 126 11 95 31
-16 10 -172 12 -182 2z"/>
<path d="M70 490 c0 -20 5 -21 98 -18 78 2 97 6 97 18 0 12 -19 16 -97 18 -93
3 -98 2 -98 -18z"/>
<path d="M70 425 c0 -12 17 -15 101 -15 76 0 100 3 97 13 -3 8 -35 13 -101 15
-82 2 -97 0 -97 -13z"/>
<path d="M556 703 c-12 -12 -7 -189 7 -206 7 -10 30 -17 57 -19 l45 -3 5 -58
c3 -36 11 -62 20 -67 8 -5 74 -10 147 -10 166 0 163 -2 163 150 0 153 3 150
-165 150 -157 0 -165 -4 -165 -81 l0 -49 -45 0 -45 0 0 94 c0 87 -7 116 -24
99z m399 -213 l0 -115 -105 -3 c-160 -4 -150 -12 -150 117 0 78 4 111 13 115
6 2 64 4 127 3 l115 -2 0 -115z"/>
<path d="M490 505 c0 -123 4 -195 10 -195 6 0 10 72 10 195 0 123 -4 195 -10
195 -6 0 -10 -72 -10 -195z"/>
</g>
</svg>
