<svg id="svg" version="1.1" xmlns="http://www.w3.org/2000/svg" xmlns:xlink="http://www.w3.org/1999/xlink" width="400" height="400" viewBox="0, 0, 400,400"><g id="svgg"><path id="path0" d="M29.131 34.670 C 27.592 35.077,27.600 34.512,27.594 145.560 C 27.590 213.007,27.445 254.026,27.209 254.400 C 26.889 254.907,24.735 255.033,13.315 255.210 C 5.882 255.326,25.105 255.461,56.033 255.510 C 86.962 255.560,170.842 255.661,242.433 255.734 C 335.185 255.830,347.822 255.802,286.400 255.634 L 200.200 255.400 200.000 145.400 C 199.890 84.900,199.654 35.175,199.476 34.900 C 199.163 34.416,30.951 34.188,29.131 34.670 M119.181 55.633 C 120.852 55.992,121.460 56.383,122.700 57.896 L 124.200 59.726 124.321 84.763 C 124.453 111.995,124.426 112.580,122.982 114.259 C 122.442 114.887,122.001 115.514,122.000 115.654 C 122.000 115.793,120.980 116.321,119.733 116.827 L 117.467 117.747 115.233 116.945 C 110.095 115.099,110.054 114.856,110.024 86.355 C 109.995 58.507,110.193 57.229,114.756 55.824 C 117.074 55.110,116.796 55.122,119.181 55.633 M225.891 56.681 C 222.229 57.254,220.969 63.331,223.873 66.409 L 224.997 67.600 262.010 67.600 C 303.431 67.600,300.222 67.838,301.568 64.670 C 302.537 62.388,302.003 59.461,300.313 57.800 L 299.093 56.600 263.046 56.554 C 243.221 56.528,226.501 56.586,225.891 56.681 M320.935 112.194 C 319.800 112.938,318.778 113.874,318.665 114.274 C 317.700 117.686,318.182 120.277,320.135 122.172 L 321.400 123.400 334.109 123.521 C 346.587 123.639,346.840 123.626,348.031 122.778 C 352.296 119.741,352.033 114.046,347.523 111.761 C 345.650 110.812,345.485 110.800,334.313 110.820 L 323.000 110.841 320.935 112.194 M120.358 131.830 C 121.336 132.221,122.362 133.080,123.066 134.096 L 124.200 135.732 124.200 145.037 C 124.200 156.978,123.550 158.200,117.203 158.200 C 111.264 158.200,110.200 156.163,110.200 144.800 L 110.200 136.600 111.429 134.600 C 113.386 131.413,116.727 130.377,120.358 131.830 M226.400 138.339 C 225.630 138.483,230.680 138.600,237.623 138.600 L 250.247 138.600 251.554 139.700 C 252.273 140.305,253.010 140.800,253.191 140.800 C 253.858 140.800,254.321 145.268,253.852 147.164 C 253.440 148.825,253.207 149.080,251.200 150.067 L 249.000 151.149 238.075 151.175 L 227.150 151.200 224.975 150.135 C 221.263 148.317,220.514 141.825,223.841 140.308 C 224.369 140.068,224.800 139.622,224.800 139.317 C 224.800 138.327,222.925 140.050,221.821 142.054 C 220.145 145.097,221.015 148.272,224.080 150.301 L 225.740 151.400 237.385 151.517 L 249.030 151.633 251.294 150.597 C 255.859 148.507,256.272 142.510,252.062 139.459 L 250.323 138.200 239.062 138.139 C 232.868 138.105,227.170 138.195,226.400 138.339 M274.600 139.600 C 274.202 140.040,273.626 140.400,273.320 140.400 C 269.212 140.400,270.054 148.647,274.261 149.624 C 276.629 150.173,344.164 150.101,346.927 149.546 L 349.187 149.092 349.458 147.046 C 349.607 145.921,349.730 145.000,349.730 145.000 C 349.730 145.000,349.601 144.100,349.444 143.000 C 349.164 141.036,349.116 140.980,346.835 139.900 L 344.511 138.800 309.918 138.800 C 275.832 138.800,275.313 138.812,274.600 139.600 M322.554 166.379 C 316.957 167.716,316.200 175.452,321.400 178.165 C 323.807 179.421,344.002 179.657,347.037 178.465 C 352.885 176.168,352.374 167.538,346.321 166.368 C 344.204 165.958,324.276 165.968,322.554 166.379 M80.636 181.235 C 84.038 184.532,83.344 189.216,78.841 193.352 C 78.093 194.038,76.833 195.308,76.041 196.173 C 75.248 197.038,73.970 198.351,73.200 199.089 C 68.787 203.321,67.088 205.120,66.554 206.122 C 65.809 207.521,65.937 207.680,74.809 216.457 C 82.606 224.169,83.382 225.509,82.405 229.579 C 81.323 234.089,76.016 235.935,71.969 233.209 C 70.041 231.910,50.678 212.575,49.286 210.558 C 47.374 207.790,47.995 204.071,50.842 201.237 C 65.553 186.592,71.623 180.723,72.600 180.198 C 74.744 179.046,78.935 179.586,80.636 181.235 M128.296 180.639 C 130.373 182.148,131.417 184.952,130.872 187.558 C 130.507 189.305,117.544 216.139,114.813 220.800 C 114.619 221.130,113.379 223.651,112.055 226.402 C 108.864 233.036,107.393 234.409,103.426 234.456 C 100.634 234.489,98.494 232.915,97.174 229.858 L 96.285 227.800 97.203 225.200 C 98.109 222.637,98.428 221.938,101.403 216.000 C 102.229 214.350,103.616 211.560,104.483 209.800 C 106.241 206.234,108.256 202.198,110.674 197.400 C 111.561 195.640,112.915 192.940,113.682 191.400 C 118.297 182.134,118.995 181.061,121.000 180.139 C 122.741 179.339,126.898 179.624,128.296 180.639 M154.913 180.148 C 156.313 180.743,177.563 201.834,178.744 203.800 C 181.172 207.843,180.439 209.064,168.235 221.288 C 153.674 235.873,152.056 236.785,147.486 232.976 C 142.410 228.744,143.492 225.911,154.343 215.032 L 162.086 207.269 161.357 206.035 C 160.956 205.356,160.502 204.800,160.347 204.800 C 160.193 204.800,159.377 204.068,158.534 203.174 C 157.690 202.280,154.684 199.265,151.853 196.474 C 145.071 189.788,143.906 187.451,145.442 183.612 C 146.807 180.200,151.232 178.582,154.913 180.148 M272.908 194.593 C 268.039 196.710,269.240 204.887,274.584 205.997 C 277.912 206.688,346.677 206.366,348.062 205.653 C 352.077 203.586,351.761 195.694,347.614 194.451 C 345.166 193.718,274.613 193.852,272.908 194.593 M224.676 195.630 C 224.557 196.086,224.086 196.557,223.630 196.676 C 222.241 197.039,222.387 202.883,223.800 203.527 C 224.350 203.778,224.800 204.257,224.800 204.591 C 224.800 205.124,226.451 205.200,238.000 205.200 C 249.549 205.200,251.200 205.124,251.200 204.591 C 251.200 204.257,251.650 203.778,252.200 203.527 C 253.613 202.883,253.759 197.039,252.370 196.676 C 251.914 196.557,251.443 196.086,251.324 195.630 C 250.982 194.323,225.018 194.323,224.676 195.630 M225.764 222.377 C 224.119 222.770,222.764 224.187,222.373 225.922 C 221.975 227.686,222.705 231.600,223.433 231.600 C 223.720 231.600,224.238 232.005,224.585 232.500 L 225.215 233.400 237.785 233.400 C 250.304 233.400,250.357 233.396,251.193 232.500 C 251.654 232.005,252.282 231.600,252.589 231.600 C 253.338 231.600,253.610 230.593,253.651 227.673 C 253.694 224.634,252.662 223.103,250.123 222.439 C 248.238 221.946,227.785 221.894,225.764 222.377 M380.100 255.499 C 383.785 255.565,389.815 255.565,393.500 255.499 C 397.185 255.433,394.170 255.379,386.800 255.379 C 379.430 255.379,376.415 255.433,380.100 255.499 M163.800 313.106 C 163.275 313.492,163.102 314.400,163.553 314.400 C 163.748 314.400,164.001 314.040,164.116 313.600 C 164.351 312.701,164.351 312.701,163.800 313.106 M162.568 326.940 C 162.429 327.301,162.174 327.507,162.000 327.400 C 161.826 327.293,161.579 327.478,161.451 327.812 C 161.263 328.302,161.366 328.339,161.987 328.007 C 162.889 327.524,163.375 326.842,163.049 326.516 C 162.923 326.389,162.706 326.580,162.568 326.940 M236.800 327.146 C 236.800 327.629,237.058 327.891,237.500 327.856 C 237.885 327.825,238.155 328.025,238.100 328.300 C 238.045 328.575,238.180 328.800,238.400 328.800 C 239.170 328.800,238.791 327.686,237.800 327.037 C 236.854 326.417,236.800 326.423,236.800 327.146 M160.032 335.450 C 159.574 336.032,159.227 336.979,159.260 337.554 L 159.320 338.600 159.484 337.522 C 159.575 336.929,159.863 336.495,160.124 336.556 C 160.386 336.618,160.465 336.593,160.300 336.501 C 159.765 336.202,159.983 335.619,160.548 335.836 C 160.850 335.951,161.202 335.771,161.331 335.436 C 161.747 334.352,160.889 334.361,160.032 335.450 M238.800 334.754 C 238.800 334.952,239.110 335.233,239.489 335.379 C 240.083 335.607,240.097 335.700,239.589 336.059 C 239.113 336.395,239.143 336.429,239.745 336.233 C 240.291 336.055,240.429 336.148,240.262 336.583 C 240.137 336.908,240.182 337.265,240.362 337.377 C 240.629 337.541,240.680 336.510,240.451 335.596 C 240.350 335.193,238.800 334.402,238.800 334.754 M157.312 341.884 C 157.196 342.187,157.213 342.547,157.351 342.684 C 157.488 342.821,157.600 342.623,157.600 342.243 C 157.600 341.863,157.768 341.656,157.972 341.783 C 158.177 341.909,158.439 341.860,158.555 341.673 C 158.670 341.486,158.486 341.333,158.144 341.333 C 157.803 341.333,157.429 341.581,157.312 341.884 M156.366 344.758 C 155.658 345.474,155.066 346.400,155.315 346.400 C 155.739 346.400,157.263 344.794,157.140 344.477 C 157.063 344.278,156.715 344.405,156.366 344.758 M242.800 344.522 C 242.800 344.841,243.072 345.328,243.405 345.604 C 243.823 345.951,243.886 346.255,243.608 346.590 C 243.170 347.118,243.457 347.600,244.209 347.600 C 244.481 347.600,244.667 347.085,244.643 346.401 C 244.619 345.741,244.478 345.201,244.329 345.201 C 244.179 345.200,243.774 344.917,243.429 344.571 C 242.902 344.045,242.800 344.037,242.800 344.522 M154.253 348.486 C 154.362 348.662,154.169 348.914,153.825 349.046 C 153.481 349.178,153.200 349.482,153.200 349.723 C 153.200 350.032,153.331 350.029,153.649 349.711 C 153.896 349.464,154.322 349.349,154.596 349.454 C 154.870 349.559,155.188 349.288,155.303 348.851 C 155.456 348.263,155.322 348.071,154.783 348.111 C 154.383 348.141,154.144 348.310,154.253 348.486 M245.287 349.625 C 245.665 349.845,246.138 350.317,246.337 350.674 C 246.626 351.190,246.700 351.105,246.700 350.261 C 246.700 349.379,246.522 349.202,245.650 349.212 C 244.756 349.223,244.702 349.284,245.287 349.625 M149.200 354.218 C 149.200 354.778,148.769 355.667,148.242 356.194 C 147.716 356.721,147.386 357.253,147.510 357.377 C 147.834 357.701,149.200 356.376,149.200 355.738 C 149.200 355.442,149.367 355.200,149.571 355.200 C 150.052 355.200,151.200 354.052,151.200 353.571 C 151.200 353.367,150.750 353.200,150.200 353.200 C 149.395 353.200,149.200 353.399,149.200 354.218 M248.900 354.200 C 248.900 354.750,249.068 355.200,249.274 355.200 C 249.479 355.200,249.536 355.020,249.400 354.800 C 249.264 354.580,249.354 354.400,249.600 354.400 C 249.846 354.400,249.919 354.192,249.762 353.938 C 249.584 353.650,249.652 353.585,249.945 353.766 C 250.202 353.925,250.309 354.224,250.181 354.431 C 250.053 354.637,250.239 355.096,250.594 355.451 C 251.188 356.045,251.217 356.005,250.958 354.948 C 250.495 353.056,248.900 352.476,248.900 354.200 M147.384 355.627 C 147.239 355.861,147.216 356.149,147.333 356.267 C 147.620 356.553,148.400 356.048,148.400 355.576 C 148.400 355.065,147.709 355.099,147.384 355.627 M253.794 357.610 C 253.655 357.835,253.689 357.994,253.870 357.963 C 254.767 357.807,255.200 358.072,255.200 358.776 C 255.200 359.203,255.378 359.663,255.595 359.797 C 255.823 359.938,255.889 359.776,255.751 359.416 C 255.577 358.962,255.687 358.859,256.155 359.038 C 256.979 359.354,256.988 358.646,256.171 357.829 C 255.458 357.115,254.173 356.997,253.794 357.610 M139.775 360.431 L 138.600 361.661 139.800 361.375 C 141.357 361.004,141.516 360.904,142.012 359.978 C 142.702 358.688,141.135 359.006,139.775 360.431 M258.600 360.400 C 257.712 360.782,257.719 360.788,259.368 361.056 C 260.389 361.222,260.471 361.167,260.019 360.623 C 259.735 360.280,259.479 360.013,259.451 360.028 C 259.423 360.044,259.040 360.211,258.600 360.400 M135.337 361.821 C 135.037 362.603,135.523 363.200,136.461 363.200 C 136.937 363.200,137.361 362.870,137.483 362.404 C 137.597 361.967,137.850 361.708,138.045 361.828 C 138.240 361.949,138.400 361.875,138.400 361.664 C 138.400 361.061,135.573 361.206,135.337 361.821 M261.451 361.683 C 261.725 362.127,262.800 362.080,262.800 361.625 C 262.800 361.419,262.452 361.276,262.028 361.308 C 261.603 361.340,261.344 361.509,261.451 361.683 M263.684 361.840 C 263.261 362.300,263.273 362.400,263.751 362.400 C 264.071 362.400,264.427 362.625,264.541 362.900 C 264.656 363.175,264.705 363.000,264.652 362.510 C 264.521 361.323,264.301 361.171,263.684 361.840 " stroke="none" fill="#ebba17" fill-rule="evenodd"></path><path id="path1" d="M114.756 55.824 C 110.193 57.229,109.995 58.507,110.024 86.355 C 110.054 114.856,110.095 115.099,115.233 116.945 L 117.467 117.747 119.733 116.827 C 120.980 116.321,122.000 115.793,122.000 115.654 C 122.001 115.514,122.442 114.887,122.982 114.259 C 124.426 112.580,124.453 111.995,124.321 84.763 L 124.200 59.726 122.700 57.896 C 120.654 55.399,118.207 54.761,114.756 55.824 M114.029 131.919 C 113.213 132.324,112.159 133.411,111.429 134.600 L 110.200 136.600 110.200 144.800 C 110.200 156.163,111.264 158.200,117.203 158.200 C 123.550 158.200,124.200 156.978,124.200 145.037 L 124.200 135.732 123.066 134.096 C 121.185 131.380,117.098 130.396,114.029 131.919 M226.900 138.672 C 225.542 138.782,224.800 139.024,224.800 139.357 C 224.800 139.640,224.369 140.068,223.841 140.308 C 220.514 141.825,221.263 148.317,224.975 150.135 L 227.150 151.200 238.075 151.175 L 249.000 151.149 251.200 150.067 C 253.207 149.080,253.440 148.825,253.852 147.164 C 254.321 145.268,253.858 140.800,253.191 140.800 C 253.010 140.800,252.277 140.308,251.563 139.708 L 250.265 138.615 239.633 138.559 C 233.785 138.528,228.055 138.579,226.900 138.672 M72.600 180.198 C 71.623 180.723,65.553 186.592,50.842 201.237 C 47.995 204.071,47.374 207.790,49.286 210.558 C 50.678 212.575,70.041 231.910,71.969 233.209 C 76.016 235.935,81.323 234.089,82.405 229.579 C 83.382 225.509,82.606 224.169,74.809 216.457 C 65.937 207.680,65.809 207.521,66.554 206.122 C 67.088 205.120,68.787 203.321,73.200 199.089 C 73.970 198.351,75.248 197.038,76.041 196.173 C 76.833 195.308,78.093 194.038,78.841 193.352 C 83.344 189.216,84.038 184.532,80.636 181.235 C 78.935 179.586,74.744 179.046,72.600 180.198 M121.000 180.139 C 118.995 181.061,118.297 182.134,113.682 191.400 C 112.915 192.940,111.561 195.640,110.674 197.400 C 108.256 202.198,106.241 206.234,104.483 209.800 C 103.616 211.560,102.229 214.350,101.403 216.000 C 98.428 221.938,98.109 222.637,97.203 225.200 L 96.285 227.800 97.174 229.858 C 98.494 232.915,100.634 234.489,103.426 234.456 C 107.393 234.409,108.864 233.036,112.055 226.402 C 113.379 223.651,114.619 221.130,114.813 220.800 C 117.544 216.139,130.507 189.305,130.872 187.558 C 132.013 182.102,126.214 177.744,121.000 180.139 M147.721 180.804 C 142.765 184.448,143.858 188.593,151.853 196.474 C 154.684 199.265,157.690 202.280,158.534 203.174 C 159.377 204.068,160.193 204.800,160.347 204.800 C 160.502 204.800,160.956 205.356,161.357 206.035 L 162.086 207.269 154.343 215.032 C 143.492 225.911,142.410 228.744,147.486 232.976 C 152.056 236.785,153.674 235.873,168.235 221.288 C 180.439 209.064,181.172 207.843,178.744 203.800 C 177.563 201.834,156.313 180.743,154.913 180.148 C 152.590 179.159,149.584 179.433,147.721 180.804 M0.000 278.175 C 0.000 298.019,0.074 300.800,0.600 300.800 C 0.973 300.800,1.200 301.178,1.200 301.800 C 1.200 302.600,1.400 302.800,2.200 302.800 C 3.044 302.800,3.200 302.987,3.200 304.000 C 3.200 304.660,3.380 305.200,3.600 305.200 C 3.820 305.200,3.955 305.425,3.900 305.700 C 3.845 305.975,4.016 306.158,4.279 306.107 C 4.542 306.056,5.423 306.641,6.235 307.407 C 7.047 308.173,8.047 308.800,8.456 308.800 C 8.972 308.800,9.200 309.090,9.200 309.748 C 9.200 310.611,9.377 310.699,11.174 310.740 C 12.712 310.775,13.370 311.006,14.152 311.788 L 15.155 312.792 89.078 312.840 C 129.735 312.866,163.288 312.907,163.640 312.930 C 164.263 312.970,164.248 314.400,163.625 314.400 C 163.470 314.400,163.314 317.235,163.280 320.700 C 163.218 326.884,163.198 327.015,162.227 327.800 C 161.320 328.533,161.240 328.866,161.258 331.800 C 161.284 336.128,161.286 336.119,160.604 335.857 C 159.947 335.605,159.478 336.885,159.429 339.065 C 159.413 339.761,159.232 340.301,159.026 340.265 C 158.472 340.169,156.908 343.289,157.111 344.086 C 157.302 344.834,156.208 346.176,155.677 345.847 C 155.495 345.735,155.335 346.219,155.321 346.922 C 155.271 349.450,155.208 349.689,154.649 349.474 C 153.970 349.214,153.196 349.924,153.447 350.577 C 153.548 350.841,153.192 351.258,152.655 351.502 C 152.089 351.760,151.485 352.536,151.215 353.354 C 150.960 354.128,150.402 354.873,149.975 355.008 C 149.549 355.143,149.200 355.453,149.200 355.695 C 149.200 356.449,147.954 357.557,147.362 357.330 C 147.053 357.212,146.800 357.336,146.800 357.606 C 146.800 357.982,146.651 357.974,146.170 357.575 C 145.653 357.146,145.481 357.145,145.218 357.571 C 144.958 357.992,144.859 357.987,144.696 357.545 C 144.538 357.113,144.341 357.148,143.748 357.714 C 143.098 358.335,143.079 358.479,143.600 358.808 C 144.016 359.072,144.047 359.205,143.700 359.244 C 143.425 359.275,143.040 359.322,142.845 359.350 C 142.650 359.378,142.155 359.810,141.745 360.312 C 141.292 360.866,140.490 361.258,139.701 361.312 C 138.986 361.360,138.401 361.546,138.401 361.724 C 138.400 361.902,138.240 361.949,138.045 361.828 C 137.850 361.708,137.599 361.959,137.487 362.388 C 137.290 363.143,136.793 363.167,121.394 363.191 L 105.503 363.215 104.723 364.207 C 104.163 364.919,103.554 365.200,102.571 365.200 C 101.375 365.200,101.200 365.328,101.200 366.200 C 101.200 367.000,101.000 367.200,100.200 367.200 C 99.400 367.200,99.200 367.400,99.200 368.200 C 99.200 369.000,99.000 369.200,98.200 369.200 C 97.352 369.200,97.200 369.385,97.200 370.419 C 97.200 371.206,96.845 371.967,96.200 372.565 C 95.211 373.482,95.200 373.562,95.200 380.146 L 95.200 386.800 96.177 386.800 C 97.039 386.800,97.168 386.998,97.277 388.491 C 97.371 389.789,97.615 390.288,98.325 390.640 C 98.834 390.892,99.233 391.218,99.211 391.364 C 99.111 392.034,100.477 392.800,101.771 392.800 C 103.029 392.800,103.200 392.920,103.200 393.800 L 103.200 394.800 199.957 394.800 L 296.713 394.800 296.964 393.800 C 297.157 393.030,297.490 392.788,298.408 392.750 C 300.414 392.666,300.520 392.624,300.632 391.863 C 300.691 391.458,300.798 391.098,300.870 391.063 C 302.237 390.397,302.655 389.885,302.971 388.493 C 303.213 387.427,303.604 386.788,304.092 386.660 C 305.231 386.362,305.118 371.608,303.974 371.309 C 303.573 371.204,303.190 370.732,303.122 370.259 C 303.046 369.721,302.663 369.352,302.100 369.272 C 301.449 369.180,301.200 368.876,301.200 368.172 C 301.200 367.429,300.987 367.200,300.295 367.200 C 299.740 367.200,299.237 366.852,298.995 366.300 C 298.694 365.613,298.174 365.353,296.800 365.200 C 295.324 365.036,294.977 364.841,294.875 364.118 L 294.749 363.236 279.675 363.210 C 270.203 363.194,264.550 363.039,264.467 362.792 C 264.393 362.577,264.033 362.386,263.667 362.368 C 263.251 362.349,263.188 362.261,263.500 362.135 C 264.193 361.856,264.127 361.333,263.400 361.333 C 263.070 361.333,262.800 361.483,262.800 361.667 C 262.800 362.340,261.627 361.974,261.023 361.111 C 260.680 360.622,260.400 360.448,260.400 360.725 C 260.400 361.274,258.645 361.196,258.115 360.623 C 257.942 360.435,258.166 360.372,258.614 360.481 C 259.212 360.627,259.429 360.483,259.429 359.940 C 259.429 359.452,259.216 359.268,258.805 359.398 C 258.462 359.507,257.585 359.425,256.855 359.216 C 255.740 358.896,255.565 358.932,255.759 359.438 C 255.891 359.780,255.820 359.936,255.595 359.797 C 255.378 359.663,255.200 359.224,255.200 358.822 C 255.200 358.382,254.652 357.831,253.825 357.439 C 253.068 357.080,252.336 356.429,252.198 355.993 C 251.934 355.160,251.200 354.893,251.200 355.629 C 251.200 355.864,250.919 355.776,250.574 355.432 C 250.230 355.088,250.053 354.637,250.181 354.431 C 250.309 354.224,250.202 353.925,249.945 353.766 C 249.652 353.585,249.584 353.650,249.762 353.938 C 249.919 354.192,249.846 354.400,249.600 354.400 C 249.354 354.400,249.264 354.580,249.400 354.800 C 249.536 355.020,249.449 355.200,249.206 355.200 C 248.963 355.200,248.794 354.975,248.830 354.700 C 249.028 353.171,248.769 351.972,248.300 352.253 C 247.908 352.489,247.910 352.418,248.306 351.928 C 248.729 351.406,248.696 351.304,248.106 351.306 C 246.588 351.313,246.319 351.188,246.553 350.579 C 246.684 350.238,246.640 350.052,246.456 350.165 C 245.951 350.477,244.316 348.795,244.545 348.199 C 244.658 347.904,244.382 347.584,243.907 347.460 C 243.235 347.284,243.162 347.128,243.539 346.673 C 243.907 346.230,243.873 345.993,243.385 345.587 C 243.041 345.302,242.796 344.693,242.839 344.234 C 242.883 343.775,242.786 343.094,242.624 342.719 C 242.462 342.345,242.464 341.805,242.629 341.519 C 242.793 341.234,242.786 341.129,242.611 341.286 C 242.137 341.714,240.800 339.817,240.800 338.717 C 240.800 338.191,240.575 337.518,240.300 337.221 C 240.025 336.925,239.980 336.782,240.200 336.903 C 240.420 337.024,240.628 336.653,240.663 336.078 C 240.715 335.215,240.659 335.152,240.343 335.716 C 240.133 336.092,239.744 336.397,239.480 336.394 C 239.157 336.390,239.179 336.274,239.548 336.041 C 239.997 335.756,239.974 335.625,239.423 335.317 C 238.926 335.039,238.737 334.350,238.704 332.690 C 238.678 331.429,238.496 330.541,238.289 330.668 C 238.086 330.794,238.137 330.492,238.401 329.997 C 238.773 329.304,238.774 329.031,238.407 328.804 C 238.146 328.643,237.937 328.351,237.942 328.155 C 237.948 327.960,237.694 327.825,237.377 327.856 C 236.910 327.901,236.797 327.140,236.784 323.856 C 236.753 315.646,236.613 313.400,236.133 313.400 C 235.877 313.400,235.534 313.267,235.371 313.104 C 235.208 312.941,268.971 312.805,310.399 312.802 C 387.217 312.796,386.800 312.804,386.800 311.351 C 386.800 310.873,388.175 310.557,389.342 310.767 C 389.952 310.876,390.842 309.887,390.631 309.336 C 390.492 308.974,390.759 308.800,391.455 308.800 C 392.077 308.800,392.796 308.404,393.271 307.800 C 393.704 307.250,394.392 306.800,394.800 306.800 C 395.949 306.800,396.800 305.682,396.800 304.171 C 396.800 302.975,396.928 302.800,397.800 302.800 C 398.600 302.800,398.800 302.600,398.800 301.800 C 398.800 301.178,399.027 300.800,399.400 300.800 C 399.926 300.800,400.000 298.033,400.000 278.300 L 400.000 255.800 200.000 255.675 L 0.000 255.550 0.000 278.175 M153.592 347.810 C 153.314 348.145,153.194 348.527,153.326 348.659 C 153.735 349.069,154.800 348.457,154.800 347.813 C 154.800 347.029,154.241 347.028,153.592 347.810 M148.400 355.557 C 148.400 355.827,148.192 355.919,147.938 355.762 C 147.665 355.593,147.584 355.651,147.741 355.904 C 147.886 356.139,147.779 356.423,147.502 356.534 C 147.189 356.660,147.170 356.749,147.451 356.768 C 148.034 356.809,148.993 355.660,148.657 355.324 C 148.516 355.182,148.400 355.287,148.400 355.557 " stroke="none" fill="#dee5e6" fill-rule="evenodd"></path><path id="path2" d="M11.467 5.467 C 10.249 6.684,11.631 7.476,12.945 6.314 C 13.372 5.936,13.837 5.700,13.980 5.787 C 14.122 5.875,14.500 5.782,14.819 5.580 C 15.222 5.325,14.837 5.210,13.567 5.206 C 12.558 5.203,11.613 5.320,11.467 5.467 M386.144 6.177 C 386.665 6.740,387.359 7.200,387.686 7.200 C 388.824 7.200,390.800 8.082,390.800 8.589 C 390.800 8.870,391.373 9.215,392.074 9.355 C 392.774 9.495,393.674 9.905,394.074 10.267 C 394.754 10.882,394.800 10.869,394.800 10.062 C 394.800 9.409,394.557 9.200,393.800 9.200 C 393.250 9.200,392.800 9.033,392.800 8.829 C 392.800 8.028,391.477 7.200,390.199 7.200 C 389.110 7.200,388.831 7.029,388.728 6.300 C 388.622 5.552,388.313 5.379,386.898 5.277 L 385.195 5.154 386.144 6.177 M8.344 7.966 C 7.269 8.837,7.520 9.406,8.800 9.000 C 9.273 8.850,9.560 8.626,9.436 8.503 C 9.313 8.380,9.525 8.042,9.906 7.752 C 10.530 7.279,10.533 7.224,9.944 7.213 C 9.584 7.206,8.864 7.545,8.344 7.966 M5.200 10.200 C 5.200 11.000,5.000 11.200,4.200 11.200 C 3.428 11.200,3.200 11.406,3.200 12.105 C 3.200 12.660,2.852 13.163,2.300 13.405 C 1.752 13.646,1.351 14.220,1.276 14.874 C 1.158 15.892,1.204 15.923,2.173 15.474 C 2.783 15.191,3.195 14.667,3.197 14.174 C 3.199 13.719,4.085 12.414,5.167 11.274 C 6.987 9.356,7.062 9.200,6.167 9.200 C 5.402 9.200,5.200 9.409,5.200 10.200 M394.933 11.800 C 394.933 12.130,395.024 12.310,395.134 12.199 C 395.516 11.817,396.800 13.327,396.803 14.162 C 396.805 14.668,397.210 15.188,397.827 15.474 C 398.796 15.923,398.842 15.892,398.724 14.874 C 398.649 14.220,398.248 13.646,397.700 13.405 C 397.148 13.163,396.800 12.660,396.800 12.105 C 396.800 11.424,396.569 11.200,395.867 11.200 C 395.304 11.200,394.933 11.438,394.933 11.800 M200.800 144.000 L 200.800 253.600 286.300 253.594 C 333.325 253.591,372.026 253.444,372.303 253.268 C 373.129 252.744,372.828 35.315,372.000 34.792 C 371.627 34.556,339.159 34.410,286.100 34.406 L 200.800 34.400 200.800 144.000 M298.749 54.900 C 300.620 55.561,301.577 56.172,302.347 57.200 C 302.923 57.970,303.564 58.721,303.770 58.868 C 305.804 60.325,303.223 68.000,300.480 68.651 C 299.886 68.792,299.066 69.198,298.658 69.554 C 297.987 70.138,294.532 70.200,262.458 70.200 L 227.000 70.200 224.733 69.104 C 221.101 67.348,218.802 63.080,220.004 60.326 C 221.344 57.258,222.315 56.222,224.853 55.157 L 227.400 54.088 261.800 54.044 L 296.200 54.000 298.749 54.900 M348.461 56.872 C 352.499 59.520,351.542 66.750,346.999 67.911 C 343.980 68.682,322.639 68.426,321.036 67.600 C 316.716 65.373,317.396 57.021,321.958 56.270 C 325.301 55.720,347.472 56.223,348.461 56.872 M251.558 83.142 C 257.393 86.228,257.064 94.498,251.027 96.506 C 249.306 97.078,230.833 97.362,227.303 96.870 C 219.345 95.761,217.562 87.450,224.358 83.141 L 226.157 82.000 237.778 82.000 L 249.400 82.000 251.558 83.142 M347.810 83.661 C 354.412 87.147,352.284 95.519,344.558 96.451 C 337.707 97.278,274.810 96.705,273.005 95.800 C 268.054 93.316,268.020 86.300,272.948 83.714 C 275.222 82.521,276.730 82.475,311.400 82.538 L 345.800 82.600 347.810 83.661 M349.223 110.867 C 350.091 111.564,350.800 112.300,350.800 112.503 C 350.800 112.706,351.188 113.186,351.662 113.569 C 353.288 114.887,352.864 121.600,351.154 121.600 C 350.959 121.600,350.800 121.854,350.800 122.164 C 350.800 122.475,350.246 123.195,349.569 123.764 L 348.339 124.800 334.570 124.800 L 320.802 124.800 319.242 123.300 C 318.385 122.475,317.560 121.350,317.410 120.800 C 317.259 120.250,316.874 119.219,316.553 118.509 C 316.049 117.391,316.047 117.068,316.537 116.109 C 316.849 115.499,317.226 114.431,317.376 113.735 C 317.559 112.885,318.253 111.998,319.490 111.035 L 321.331 109.600 334.489 109.600 L 347.647 109.600 349.223 110.867 M299.685 111.123 C 304.644 114.207,304.931 119.751,300.311 123.217 L 299.000 124.200 262.184 124.200 L 225.368 124.200 223.737 122.908 C 218.450 118.721,220.420 111.571,227.184 110.394 C 228.183 110.220,244.570 110.105,263.600 110.139 L 298.200 110.200 299.685 111.123 M249.237 137.162 C 252.226 137.476,254.800 138.854,254.800 140.140 C 254.800 140.365,255.205 140.980,255.700 141.507 C 256.989 142.881,257.007 147.326,255.728 148.329 C 255.257 148.698,254.809 149.358,254.731 149.795 C 254.654 150.233,254.272 150.652,253.882 150.727 C 253.492 150.803,252.737 151.300,252.204 151.832 L 251.236 152.800 238.000 152.800 L 224.764 152.800 223.822 151.858 C 223.304 151.340,222.588 150.804,222.231 150.667 C 221.874 150.530,221.460 150.099,221.310 149.709 C 221.161 149.319,220.681 148.710,220.244 148.356 C 219.063 147.397,219.084 142.585,220.273 141.622 C 220.726 141.255,221.219 140.605,221.369 140.178 C 221.906 138.641,224.028 137.414,226.583 137.161 C 230.241 136.799,245.791 136.800,249.237 137.162 M349.331 138.520 C 350.139 139.137,350.800 139.828,350.800 140.057 C 350.800 140.286,351.160 140.931,351.600 141.491 C 352.700 142.889,352.744 147.256,351.669 148.331 C 351.268 148.732,350.822 149.366,350.679 149.740 C 350.535 150.113,350.099 150.538,349.709 150.684 C 349.319 150.831,348.809 151.204,348.576 151.515 C 347.729 152.644,344.021 152.765,310.600 152.759 C 276.719 152.752,273.056 152.634,272.234 151.519 C 271.995 151.195,271.404 150.720,270.919 150.461 C 268.648 149.252,267.498 144.933,268.800 142.504 C 269.240 141.684,269.600 140.829,269.600 140.606 C 269.600 139.866,272.566 137.804,273.994 137.551 C 274.767 137.414,291.704 137.324,311.631 137.351 L 347.863 137.400 349.331 138.520 M347.200 165.129 C 348.660 165.426,349.634 165.883,350.096 166.488 C 350.479 166.990,351.195 167.805,351.688 168.301 C 353.124 169.743,353.261 174.776,351.901 176.136 C 351.359 176.677,350.804 177.412,350.667 177.769 C 350.530 178.126,350.099 178.540,349.709 178.690 C 349.319 178.839,348.701 179.330,348.335 179.781 C 347.309 181.045,321.514 181.063,320.465 179.800 C 320.099 179.360,319.321 178.691,318.735 178.313 C 318.106 177.908,317.552 177.089,317.384 176.314 C 317.226 175.591,316.851 174.645,316.549 174.211 C 315.833 173.181,315.850 171.551,316.587 170.576 C 316.910 170.149,317.180 169.464,317.187 169.053 C 317.212 167.629,320.128 165.203,321.853 165.172 C 322.704 165.156,323.760 164.985,324.200 164.790 C 325.312 164.299,344.508 164.582,347.200 165.129 M299.871 166.637 C 304.845 170.325,304.536 176.017,299.215 178.700 L 297.430 179.600 262.194 179.600 L 226.957 179.600 224.979 178.610 C 218.724 175.478,220.008 166.517,226.801 165.890 C 234.431 165.185,298.801 165.844,299.871 166.637 M348.138 192.965 C 349.423 193.606,350.574 194.416,350.696 194.765 C 350.817 195.114,351.295 195.705,351.758 196.077 C 353.019 197.091,353.014 202.933,351.752 203.957 C 351.285 204.335,350.778 205.039,350.625 205.521 C 350.468 206.017,349.879 206.515,349.273 206.667 C 348.683 206.814,347.660 207.264,347.000 207.666 C 345.039 208.861,275.413 208.797,273.891 207.600 C 273.331 207.160,272.531 206.800,272.112 206.800 C 271.162 206.800,269.755 205.522,269.376 204.314 C 269.219 203.811,268.755 202.971,268.345 202.446 C 267.519 201.388,267.385 199.739,268.009 198.326 C 269.062 195.946,270.287 194.184,271.200 193.738 C 276.005 191.389,272.236 191.583,310.800 191.697 L 345.800 191.800 348.138 192.965 M250.961 193.125 C 256.947 195.556,257.829 204.330,252.294 206.389 C 251.582 206.654,250.522 207.125,249.938 207.436 C 248.409 208.249,227.355 208.262,226.189 207.451 C 225.755 207.149,224.802 206.772,224.071 206.613 C 220.735 205.887,218.961 200.115,221.004 196.630 C 223.403 192.536,225.193 192.057,238.200 192.027 L 248.200 192.004 250.961 193.125 M250.246 220.106 C 250.711 220.378,251.791 220.987,252.646 221.459 C 255.547 223.063,257.270 227.979,255.655 230.046 C 255.245 230.571,254.786 231.360,254.635 231.800 C 254.255 232.903,252.257 234.406,250.481 234.926 C 248.571 235.485,227.685 235.763,226.600 235.245 C 226.160 235.034,225.350 234.762,224.800 234.640 C 223.604 234.375,221.200 232.197,221.200 231.380 C 221.200 231.061,221.042 230.800,220.849 230.800 C 220.120 230.800,219.508 228.409,219.777 226.614 C 220.077 224.615,223.945 220.221,225.705 219.882 C 228.027 219.434,249.430 219.629,250.246 220.106 M347.606 221.349 C 353.097 224.254,353.200 230.959,347.800 233.938 C 346.314 234.758,277.303 235.182,274.360 234.389 C 268.145 232.716,267.316 224.678,273.033 221.509 L 275.000 220.419 310.406 220.409 L 345.812 220.400 347.606 221.349 M162.800 325.533 C 162.800 325.790,162.665 325.955,162.500 325.900 C 162.335 325.845,162.170 325.960,162.134 326.155 C 162.098 326.351,161.828 326.663,161.534 326.849 C 161.236 327.038,161.194 327.190,161.438 327.194 C 162.041 327.202,163.390 325.657,163.064 325.331 C 162.919 325.186,162.800 325.277,162.800 325.533 M236.806 325.438 C 236.798 326.041,238.343 327.390,238.669 327.064 C 238.814 326.919,238.723 326.800,238.467 326.800 C 238.210 326.800,238.045 326.665,238.100 326.500 C 238.155 326.335,238.040 326.170,237.845 326.134 C 237.649 326.098,237.337 325.828,237.151 325.534 C 236.962 325.236,236.810 325.194,236.806 325.438 M160.800 333.533 C 160.800 333.790,160.575 333.955,160.300 333.900 C 160.025 333.845,159.845 334.025,159.900 334.300 C 159.955 334.575,159.820 334.800,159.600 334.800 C 159.380 334.800,159.200 335.021,159.200 335.291 C 159.200 335.561,159.685 335.296,160.279 334.703 C 160.872 334.110,161.232 333.499,161.079 333.345 C 160.925 333.192,160.800 333.277,160.800 333.533 M238.806 333.438 C 238.798 334.041,240.343 335.390,240.669 335.064 C 240.814 334.919,240.723 334.800,240.467 334.800 C 240.210 334.800,240.045 334.665,240.100 334.500 C 240.155 334.335,240.040 334.170,239.845 334.134 C 239.649 334.098,239.337 333.828,239.151 333.534 C 238.962 333.236,238.810 333.194,238.806 333.438 M156.400 343.557 C 156.400 343.827,156.192 343.919,155.938 343.762 C 155.665 343.593,155.584 343.651,155.741 343.904 C 155.886 344.139,155.779 344.423,155.502 344.534 C 155.189 344.660,155.170 344.749,155.451 344.768 C 156.034 344.809,156.993 343.660,156.657 343.324 C 156.516 343.182,156.400 343.287,156.400 343.557 M244.800 347.571 C 244.800 347.776,245.083 348.226,245.429 348.571 C 245.774 348.917,246.224 349.200,246.429 349.200 C 246.997 349.200,246.871 348.528,246.171 347.829 C 245.472 347.129,244.800 347.003,244.800 347.571 " stroke="none" fill="#2d3c4c" fill-rule="evenodd"></path><path id="path3" d="M14.834 5.570 C 14.523 5.767,13.933 5.864,13.523 5.785 C 13.114 5.706,12.855 5.767,12.947 5.921 C 13.158 6.269,12.363 6.963,11.584 7.111 C 10.528 7.313,9.223 8.114,9.424 8.439 C 9.532 8.614,8.958 8.940,8.149 9.163 C 6.452 9.632,3.204 12.942,3.202 14.205 C 3.201 14.655,2.803 15.184,2.300 15.405 C 1.805 15.622,1.342 16.205,1.272 16.700 C 1.202 17.195,0.887 17.600,0.572 17.600 C 0.077 17.600,0.000 33.634,0.000 136.400 L 0.000 255.200 13.171 255.200 C 24.612 255.200,26.425 255.117,26.971 254.571 C 27.540 254.003,27.600 243.563,27.600 145.631 C 27.600 32.636,27.561 35.119,29.325 34.646 C 31.259 34.127,199.139 34.378,199.476 34.900 C 199.654 35.175,199.890 84.900,200.000 145.400 L 200.200 255.400 273.600 255.525 C 313.970 255.593,358.925 255.527,373.500 255.377 L 400.000 255.104 400.000 136.352 C 400.000 33.628,399.923 17.600,399.428 17.600 C 399.113 17.600,398.798 17.195,398.728 16.700 C 398.658 16.205,398.195 15.622,397.700 15.405 C 397.176 15.175,396.800 14.658,396.800 14.167 C 396.800 13.201,395.500 11.849,395.003 12.299 C 394.821 12.465,394.788 12.396,394.930 12.147 C 395.369 11.379,393.655 9.647,392.183 9.370 C 391.422 9.228,390.800 8.879,390.800 8.595 C 390.800 8.083,388.829 7.200,387.686 7.200 C 387.359 7.200,386.675 6.750,386.165 6.200 L 385.238 5.200 200.319 5.206 C 92.120 5.210,15.165 5.361,14.834 5.570 M372.000 34.792 C 372.828 35.315,373.129 252.744,372.303 253.268 C 372.026 253.444,333.325 253.591,286.300 253.594 L 200.800 253.600 200.800 144.000 L 200.800 34.400 286.100 34.406 C 339.159 34.410,371.627 34.556,372.000 34.792 M224.853 55.157 C 222.315 56.222,221.344 57.258,220.004 60.326 C 218.802 63.080,221.101 67.348,224.733 69.104 L 227.000 70.200 262.458 70.200 C 294.532 70.200,297.987 70.138,298.658 69.554 C 299.066 69.198,299.886 68.792,300.480 68.651 C 303.223 68.000,305.804 60.325,303.770 58.868 C 303.564 58.721,302.923 57.970,302.347 57.200 C 301.577 56.172,300.620 55.561,298.749 54.900 L 296.200 54.000 261.800 54.044 L 227.400 54.088 224.853 55.157 M321.958 56.270 C 317.396 57.021,316.716 65.373,321.036 67.600 C 322.639 68.426,343.980 68.682,346.999 67.911 C 351.542 66.750,352.499 59.520,348.461 56.872 C 347.472 56.223,325.301 55.720,321.958 56.270 M300.313 57.800 C 302.003 59.461,302.537 62.388,301.568 64.670 C 300.222 67.838,303.431 67.600,262.010 67.600 L 224.997 67.600 223.873 66.409 C 220.969 63.331,222.229 57.254,225.891 56.681 C 226.501 56.586,243.221 56.528,263.046 56.554 L 299.093 56.600 300.313 57.800 M224.358 83.141 C 217.562 87.450,219.345 95.761,227.303 96.870 C 230.833 97.362,249.306 97.078,251.027 96.506 C 257.064 94.498,257.393 86.228,251.558 83.142 L 249.400 82.000 237.778 82.000 L 226.157 82.000 224.358 83.141 M275.600 82.766 C 268.545 84.232,266.856 92.715,273.005 95.800 C 274.810 96.705,337.707 97.278,344.558 96.451 C 352.284 95.519,354.412 87.147,347.810 83.661 L 345.800 82.600 311.400 82.538 C 292.480 82.503,276.370 82.606,275.600 82.766 M250.046 84.355 C 253.658 85.195,255.599 92.107,252.662 93.672 C 252.188 93.924,251.590 94.416,251.332 94.765 C 250.922 95.322,249.283 95.400,237.981 95.400 L 225.098 95.400 224.500 94.500 C 224.171 94.005,223.678 93.600,223.403 93.600 C 222.657 93.600,221.875 90.322,222.185 88.491 C 222.490 86.686,224.409 84.572,226.000 84.288 C 227.849 83.957,248.584 84.015,250.046 84.355 M319.490 111.035 C 318.253 111.998,317.559 112.885,317.376 113.735 C 317.226 114.431,316.849 115.499,316.537 116.109 C 316.047 117.068,316.049 117.391,316.553 118.509 C 316.874 119.219,317.259 120.250,317.410 120.800 C 317.560 121.350,318.385 122.475,319.242 123.300 L 320.802 124.800 334.570 124.800 L 348.339 124.800 349.569 123.764 C 350.246 123.195,350.800 122.475,350.800 122.164 C 350.800 121.854,350.959 121.600,351.154 121.600 C 352.864 121.600,353.288 114.887,351.662 113.569 C 351.188 113.186,350.800 112.706,350.800 112.503 C 350.800 112.300,350.091 111.564,349.223 110.867 L 347.647 109.600 334.489 109.600 L 321.331 109.600 319.490 111.035 M245.530 110.300 C 254.841 110.360,269.961 110.360,279.130 110.300 C 288.298 110.240,280.680 110.191,262.200 110.191 C 243.720 110.191,236.218 110.240,245.530 110.300 M223.897 111.566 C 222.298 112.591,222.003 113.006,223.400 112.266 C 225.076 111.377,225.871 110.808,225.400 110.835 C 225.180 110.848,224.504 111.177,223.897 111.566 M301.100 112.728 C 302.258 113.892,303.221 115.233,303.246 115.719 C 303.281 116.381,303.338 116.429,303.474 115.909 C 303.692 115.077,301.955 112.704,300.242 111.495 C 299.475 110.954,299.804 111.426,301.100 112.728 M347.523 111.761 C 352.033 114.046,352.296 119.741,348.031 122.778 C 346.840 123.626,346.587 123.639,334.109 123.521 L 321.400 123.400 320.135 122.172 C 318.182 120.277,317.700 117.686,318.665 114.274 C 318.778 113.874,319.800 112.938,320.935 112.194 L 323.000 110.841 334.313 110.820 C 345.485 110.800,345.650 110.812,347.523 111.761 M302.900 119.300 C 302.470 120.475,302.480 120.526,303.012 119.824 C 303.521 119.152,303.821 118.000,303.488 118.000 C 303.426 118.000,303.161 118.585,302.900 119.300 M301.708 121.392 C 301.526 121.718,300.762 122.438,300.011 122.992 C 299.259 123.546,298.782 124.000,298.949 124.000 C 299.464 124.000,301.917 121.993,302.153 121.379 C 302.443 120.623,302.134 120.632,301.708 121.392 M244.530 124.300 C 254.392 124.360,270.412 124.359,280.130 124.300 C 289.849 124.240,281.780 124.191,262.200 124.192 C 242.620 124.192,234.669 124.240,244.530 124.300 M226.583 137.161 C 224.028 137.414,221.906 138.641,221.369 140.178 C 221.219 140.605,220.726 141.255,220.273 141.622 C 219.084 142.585,219.063 147.397,220.244 148.356 C 220.681 148.710,221.161 149.319,221.310 149.709 C 221.460 150.099,221.874 150.530,222.231 150.667 C 222.588 150.804,223.304 151.340,223.822 151.858 L 224.764 152.800 238.000 152.800 L 251.236 152.800 252.204 151.832 C 252.737 151.300,253.492 150.803,253.882 150.727 C 254.272 150.652,254.654 150.233,254.731 149.795 C 254.809 149.358,255.257 148.698,255.728 148.329 C 257.007 147.326,256.989 142.881,255.700 141.507 C 255.205 140.980,254.800 140.365,254.800 140.140 C 254.800 138.854,252.226 137.476,249.237 137.162 C 245.791 136.800,230.241 136.799,226.583 137.161 M273.994 137.551 C 272.566 137.804,269.600 139.866,269.600 140.606 C 269.600 140.829,269.240 141.684,268.800 142.504 C 267.498 144.933,268.648 149.252,270.919 150.461 C 271.404 150.720,271.995 151.195,272.234 151.519 C 273.056 152.634,276.719 152.752,310.600 152.759 C 344.021 152.765,347.729 152.644,348.576 151.515 C 348.809 151.204,349.319 150.831,349.709 150.684 C 350.099 150.538,350.535 150.113,350.679 149.740 C 350.822 149.366,351.268 148.732,351.669 148.331 C 352.744 147.256,352.700 142.889,351.600 141.491 C 351.160 140.931,350.800 140.286,350.800 140.057 C 350.800 139.828,350.139 139.137,349.331 138.520 L 347.863 137.400 311.631 137.351 C 291.704 137.324,274.767 137.414,273.994 137.551 M252.062 139.459 C 256.272 142.510,255.859 148.507,251.294 150.597 L 249.030 151.633 237.385 151.517 L 225.740 151.400 224.080 150.301 C 221.015 148.272,220.145 145.097,221.821 142.054 C 223.958 138.175,224.531 138.045,239.062 138.132 L 250.323 138.200 252.062 139.459 M346.835 139.900 C 349.116 140.980,349.164 141.036,349.444 143.000 C 349.601 144.100,349.730 145.000,349.730 145.000 C 349.730 145.000,349.607 145.921,349.458 147.046 L 349.187 149.092 346.927 149.546 C 344.164 150.101,276.629 150.173,274.261 149.624 C 270.054 148.647,269.212 140.400,273.320 140.400 C 273.626 140.400,274.202 140.040,274.600 139.600 C 275.313 138.812,275.832 138.800,309.918 138.800 L 344.511 138.800 346.835 139.900 M324.200 164.790 C 323.760 164.985,322.704 165.156,321.853 165.172 C 320.128 165.203,317.212 167.629,317.187 169.053 C 317.180 169.464,316.910 170.149,316.587 170.576 C 315.850 171.551,315.833 173.181,316.549 174.211 C 316.851 174.645,317.226 175.591,317.384 176.314 C 317.552 177.089,318.106 177.908,318.735 178.313 C 319.321 178.691,320.099 179.360,320.465 179.800 C 321.514 181.063,347.309 181.045,348.335 179.781 C 348.701 179.330,349.319 178.839,349.709 178.690 C 350.099 178.540,350.530 178.126,350.667 177.769 C 350.804 177.412,351.359 176.677,351.901 176.136 C 353.261 174.776,353.124 169.743,351.688 168.301 C 351.195 167.805,350.479 166.990,350.096 166.488 C 349.634 165.883,348.660 165.426,347.200 165.129 C 344.508 164.582,325.312 164.299,324.200 164.790 M226.801 165.890 C 220.008 166.517,218.724 175.478,224.979 178.610 L 226.957 179.600 262.194 179.600 L 297.430 179.600 299.215 178.700 C 304.536 176.017,304.845 170.325,299.871 166.637 C 298.801 165.844,234.431 165.185,226.801 165.890 M346.321 166.368 C 352.374 167.538,352.885 176.168,347.037 178.465 C 344.002 179.657,323.807 179.421,321.400 178.165 C 318.473 176.638,317.456 174.022,318.248 170.061 C 318.532 168.640,320.642 166.836,322.554 166.379 C 324.276 165.968,344.204 165.958,346.321 166.368 M274.000 192.421 C 273.010 192.877,271.750 193.469,271.200 193.738 C 270.287 194.184,269.062 195.946,268.009 198.326 C 267.385 199.739,267.519 201.388,268.345 202.446 C 268.755 202.971,269.219 203.811,269.376 204.314 C 269.755 205.522,271.162 206.800,272.112 206.800 C 272.531 206.800,273.331 207.160,273.891 207.600 C 275.413 208.797,345.039 208.861,347.000 207.666 C 347.660 207.264,348.683 206.814,349.273 206.667 C 349.879 206.515,350.468 206.017,350.625 205.521 C 350.778 205.039,351.285 204.335,351.752 203.957 C 353.014 202.933,353.019 197.091,351.758 196.077 C 351.295 195.705,350.817 195.114,350.696 194.765 C 350.574 194.416,349.423 193.606,348.138 192.965 L 345.800 191.800 310.800 191.697 C 276.145 191.595,275.782 191.602,274.000 192.421 M225.826 192.830 C 222.124 194.045,220.000 196.729,220.000 200.190 C 220.000 202.779,222.167 206.199,224.071 206.613 C 224.802 206.772,225.755 207.149,226.189 207.451 C 227.355 208.262,248.409 208.249,249.938 207.436 C 250.522 207.125,251.582 206.654,252.294 206.389 C 257.829 204.330,256.947 195.556,250.961 193.125 L 248.200 192.004 238.200 192.027 C 229.406 192.048,227.914 192.144,225.826 192.830 M347.614 194.451 C 351.761 195.694,352.077 203.586,348.062 205.653 C 346.677 206.366,277.912 206.688,274.584 205.997 C 269.240 204.887,268.039 196.710,272.908 194.593 C 274.613 193.852,345.166 193.718,347.614 194.451 M251.324 195.630 C 251.443 196.086,251.914 196.557,252.370 196.676 C 253.759 197.039,253.613 202.883,252.200 203.527 C 251.650 203.778,251.200 204.257,251.200 204.591 C 251.200 205.124,249.549 205.200,238.000 205.200 C 226.451 205.200,224.800 205.124,224.800 204.591 C 224.800 204.257,224.350 203.778,223.800 203.527 C 222.387 202.883,222.241 197.039,223.630 196.676 C 224.086 196.557,224.557 196.086,224.676 195.630 C 225.018 194.323,250.982 194.323,251.324 195.630 M225.705 219.882 C 223.945 220.221,220.077 224.615,219.777 226.614 C 219.508 228.409,220.120 230.800,220.849 230.800 C 221.042 230.800,221.200 231.061,221.200 231.380 C 221.200 232.197,223.604 234.375,224.800 234.640 C 225.350 234.762,226.160 235.034,226.600 235.245 C 227.685 235.763,248.571 235.485,250.481 234.926 C 252.257 234.406,254.255 232.903,254.635 231.800 C 254.786 231.360,255.245 230.571,255.655 230.046 C 257.270 227.979,255.547 223.063,252.646 221.459 C 251.791 220.987,250.711 220.378,250.246 220.106 C 249.430 219.629,228.027 219.434,225.705 219.882 M273.138 221.407 C 271.309 222.359,269.599 224.075,269.601 224.954 C 269.602 225.199,269.955 224.822,270.386 224.116 C 270.816 223.410,271.941 222.420,272.884 221.916 L 274.600 221.000 310.400 220.796 L 346.200 220.592 310.600 220.514 L 275.000 220.437 273.138 221.407 M250.123 222.439 C 252.662 223.103,253.694 224.634,253.651 227.673 C 253.610 230.593,253.338 231.600,252.589 231.600 C 252.282 231.600,251.654 232.005,251.193 232.500 C 250.357 233.396,250.304 233.400,237.785 233.400 L 225.215 233.400 224.585 232.500 C 224.238 232.005,223.720 231.600,223.433 231.600 C 222.705 231.600,221.975 227.686,222.373 225.922 C 222.764 224.187,224.119 222.770,225.764 222.377 C 227.785 221.894,248.238 221.946,250.123 222.439 M351.175 225.726 C 352.095 228.163,351.125 231.024,348.711 232.995 C 347.990 233.583,347.760 233.887,348.200 233.669 C 351.190 232.190,353.046 226.870,351.206 225.052 C 350.864 224.713,350.856 224.882,351.175 225.726 M292.730 234.700 C 302.482 234.760,318.322 234.760,327.930 234.700 C 337.539 234.640,329.560 234.591,310.200 234.591 C 290.840 234.591,282.979 234.640,292.730 234.700 M155.970 344.653 C 155.045 345.656,155.041 345.680,155.892 345.161 C 156.383 344.862,156.872 344.388,156.980 344.109 C 157.266 343.362,157.052 343.477,155.970 344.653 " stroke="none" fill="#4b5c74" fill-rule="evenodd"></path><path id="path4" d="M226.000 84.288 C 224.409 84.572,222.490 86.686,222.185 88.491 C 221.875 90.322,222.657 93.600,223.403 93.600 C 223.678 93.600,224.171 94.005,224.500 94.500 L 225.098 95.400 237.981 95.400 C 249.283 95.400,250.922 95.322,251.332 94.765 C 251.590 94.416,252.188 93.924,252.662 93.672 C 255.599 92.107,253.658 85.195,250.046 84.355 C 248.584 84.015,227.849 83.957,226.000 84.288 M224.800 111.528 C 219.971 114.108,219.638 119.594,224.113 122.836 L 225.720 124.000 262.139 124.000 L 298.557 124.000 300.074 122.949 C 303.946 120.265,304.411 116.049,301.189 112.827 C 298.624 110.262,301.038 110.409,261.555 110.404 L 226.911 110.400 224.800 111.528 M273.127 221.813 C 268.558 224.192,267.973 229.485,271.921 232.721 L 273.726 234.200 310.394 234.200 L 347.062 234.200 348.535 233.077 C 352.690 229.907,352.381 224.243,347.921 221.834 L 346.006 220.800 310.503 220.819 L 275.000 220.837 273.127 221.813 " stroke="none" fill="#24ab8b" fill-rule="evenodd"></path></g></svg>