<svg id="svg" version="1.1" xmlns="http://www.w3.org/2000/svg" xmlns:xlink="http://www.w3.org/1999/xlink" width="400" height="400" viewBox="0, 0, 400,400"><g id="svgg"><path id="path0" d="M172.400 0.537 C 172.400 1.127,170.766 1.684,166.802 2.444 C 165.373 2.718,163.663 3.253,163.002 3.633 C 162.341 4.012,161.170 4.453,160.400 4.613 C 159.630 4.773,158.571 5.241,158.046 5.652 C 157.521 6.063,156.770 6.400,156.377 6.400 C 155.983 6.400,155.127 6.850,154.473 7.400 C 153.819 7.950,153.095 8.400,152.863 8.400 C 152.631 8.400,151.937 8.841,151.321 9.380 C 150.704 9.919,149.685 10.774,149.056 11.280 C 147.426 12.590,143.524 16.505,142.717 17.640 C 142.341 18.168,141.576 19.166,141.017 19.858 C 140.458 20.550,140.000 21.289,140.000 21.502 C 140.000 21.714,139.569 22.524,139.041 23.301 C 138.514 24.078,137.952 25.318,137.792 26.057 C 137.633 26.796,137.119 28.120,136.651 29.000 L 135.800 30.600 135.800 199.400 L 135.800 368.200 136.666 369.600 C 137.143 370.370,137.656 371.665,137.807 372.477 C 137.957 373.289,138.512 374.539,139.040 375.254 C 139.568 375.970,140.000 376.719,140.000 376.919 C 140.000 377.119,140.855 378.339,141.900 379.630 C 142.945 380.922,144.333 382.665,144.984 383.505 C 146.559 385.535,150.423 388.545,153.032 389.774 C 153.709 390.093,154.496 390.634,154.781 390.977 C 155.065 391.320,155.519 391.600,155.789 391.600 C 156.060 391.600,157.127 392.050,158.162 392.600 C 159.196 393.150,160.207 393.600,160.409 393.600 C 160.611 393.600,161.760 394.050,162.963 394.600 C 164.165 395.150,165.398 395.600,165.702 395.600 C 167.943 395.600,170.400 396.864,170.400 398.016 L 170.400 399.202 270.700 399.101 L 371.000 399.000 371.126 398.117 C 371.240 397.313,371.508 397.224,374.126 397.117 C 376.760 397.010,377.011 396.925,377.128 396.100 C 377.231 395.371,377.511 395.200,378.595 395.200 C 380.428 395.200,381.200 394.845,381.200 394.003 C 381.200 393.466,381.642 393.225,383.000 393.021 C 384.396 392.812,384.800 392.583,384.800 392.002 C 384.800 391.482,385.137 391.214,385.900 391.127 C 386.669 391.038,387.037 390.742,387.122 390.142 C 387.219 389.464,387.612 389.229,388.997 389.021 C 390.398 388.811,390.775 388.582,390.875 387.879 C 390.953 387.330,391.329 386.953,391.875 386.875 C 392.421 386.798,392.798 386.421,392.875 385.875 C 392.953 385.329,393.330 384.953,393.879 384.875 C 394.582 384.775,394.811 384.398,395.021 382.997 C 395.229 381.612,395.464 381.219,396.142 381.122 C 396.859 381.020,397.020 380.691,397.121 379.125 C 397.223 377.544,397.379 377.231,398.121 377.125 C 398.864 377.019,399.019 376.707,399.122 375.100 C 399.189 374.055,399.414 373.200,399.622 373.200 C 399.859 373.200,400.000 308.135,400.000 199.000 C 400.000 89.865,399.859 24.800,399.622 24.800 C 399.414 24.800,399.189 23.945,399.122 22.900 C 399.048 21.747,398.803 20.980,398.500 20.950 C 398.225 20.922,397.820 20.878,397.600 20.850 C 397.380 20.823,397.197 20.125,397.194 19.300 C 397.187 17.567,396.757 16.706,395.986 16.879 C 395.625 16.959,395.322 16.365,395.079 15.100 C 394.779 13.541,394.560 13.199,393.857 13.195 C 391.797 13.181,391.288 12.782,391.015 10.964 C 390.789 9.453,390.611 9.193,389.775 9.150 C 389.239 9.123,388.620 9.055,388.400 9.000 C 388.180 8.945,387.820 8.878,387.600 8.850 C 387.380 8.822,387.200 8.436,387.200 7.990 C 387.200 7.410,386.859 7.112,386.000 6.940 C 385.179 6.776,384.800 6.463,384.800 5.950 C 384.800 5.226,384.226 5.050,381.900 5.060 C 381.436 5.062,381.200 4.754,381.200 4.146 C 381.200 3.348,380.942 3.193,379.234 2.967 C 377.831 2.781,377.216 2.504,377.084 1.999 C 376.938 1.442,376.289 1.230,374.049 1.005 C 372.482 0.848,371.200 0.557,371.200 0.359 C 371.200 0.148,330.315 0.000,271.800 0.000 C 188.923 0.000,172.400 0.089,172.400 0.537 M201.800 20.946 C 207.801 21.740,209.224 22.786,209.841 26.858 C 210.751 32.861,212.622 37.236,214.538 37.844 C 215.004 37.992,215.898 38.492,216.526 38.956 L 217.668 39.800 266.934 39.797 C 305.636 39.796,316.414 39.687,317.200 39.293 C 322.266 36.751,324.000 34.018,324.000 28.573 C 324.000 22.972,324.786 21.800,329.200 20.819 C 331.483 20.312,351.946 20.276,354.833 20.774 C 356.025 20.979,358.246 21.349,359.769 21.596 C 365.462 22.519,371.367 27.328,372.945 32.327 C 373.997 35.659,374.065 46.047,374.027 199.266 C 373.988 356.944,373.926 363.717,372.496 366.904 C 370.563 371.211,364.744 375.763,360.000 376.678 C 352.578 378.110,188.501 378.230,175.898 376.813 C 168.607 375.993,161.967 370.246,161.170 364.065 C 160.721 360.582,160.721 37.818,161.170 34.335 C 161.687 30.326,165.590 25.251,169.483 23.524 C 170.409 23.113,171.265 22.619,171.385 22.425 C 171.505 22.231,172.907 21.858,174.501 21.597 C 176.096 21.335,178.120 20.978,179.000 20.804 C 181.672 20.273,197.453 20.371,201.800 20.946 M47.506 22.034 C 41.617 22.896,33.593 28.835,31.932 33.560 C 30.427 37.840,30.362 39.175,30.482 63.298 L 30.600 87.000 31.500 88.684 C 31.995 89.610,32.400 90.623,32.400 90.934 C 32.400 91.662,37.309 96.629,38.780 97.390 C 39.398 97.709,40.009 98.247,40.139 98.585 C 40.269 98.923,40.806 99.200,41.334 99.200 C 41.861 99.200,42.731 99.546,43.268 99.968 C 45.817 101.972,61.418 102.124,63.626 100.165 C 63.970 99.860,64.870 99.397,65.626 99.136 C 66.382 98.876,67.235 98.334,67.523 97.931 C 67.810 97.529,68.233 97.200,68.462 97.200 C 68.692 97.200,69.806 96.255,70.938 95.100 C 72.882 93.117,73.719 91.929,74.815 89.600 C 75.612 87.906,76.100 64.929,75.678 49.000 L 75.301 34.792 74.250 33.204 C 73.673 32.331,73.200 31.422,73.200 31.182 C 73.200 30.658,69.005 26.400,68.488 26.400 C 68.288 26.400,67.836 26.082,67.485 25.694 C 64.612 22.520,55.537 20.857,47.506 22.034 M57.787 56.741 C 60.833 58.929,61.826 61.703,60.413 64.077 C 57.381 69.173,50.406 69.391,46.700 64.507 C 42.476 58.940,51.776 52.425,57.787 56.741 " stroke="none" fill="#5d5f57" fill-rule="evenodd"></path><path id="path1" d="M31.200 0.624 C 31.200 0.967,31.020 1.136,30.799 0.999 C 29.876 0.429,24.800 1.276,24.800 2.000 C 24.800 2.534,24.333 2.759,22.804 2.962 C 21.707 3.107,20.828 3.355,20.852 3.513 C 20.994 4.465,20.610 4.779,19.014 5.019 C 18.032 5.166,17.244 5.402,17.262 5.543 C 17.379 6.457,17.138 7.209,16.796 6.998 C 16.089 6.561,14.800 7.226,14.800 8.027 C 14.800 8.719,14.378 8.986,13.500 8.847 C 13.335 8.821,13.200 8.991,13.200 9.224 C 13.200 9.457,13.019 9.535,12.797 9.398 C 12.272 9.074,11.074 10.272,11.398 10.797 C 11.535 11.019,11.457 11.200,11.224 11.200 C 10.991 11.200,10.800 11.560,10.800 12.000 C 10.800 12.642,10.533 12.800,9.449 12.800 C 7.790 12.800,7.189 13.470,7.059 15.466 C 6.974 16.761,6.823 16.993,6.087 16.953 C 5.163 16.903,4.452 18.917,4.943 20.197 C 5.110 20.631,4.906 20.800,4.212 20.800 C 3.218 20.800,2.320 23.699,2.982 24.771 C 3.146 25.036,2.895 25.161,2.323 25.099 C 0.866 24.943,0.900 20.927,0.897 197.800 C 0.894 375.763,0.872 373.057,2.323 372.901 C 2.895 372.839,3.146 372.964,2.982 373.229 C 2.303 374.327,3.219 377.200,4.248 377.200 C 4.798 377.200,5.139 377.376,5.006 377.591 C 4.516 378.384,5.608 381.291,6.326 381.103 C 6.829 380.972,7.022 381.216,7.087 382.064 C 7.262 384.338,7.385 384.644,8.150 384.701 C 9.026 384.767,9.677 385.565,9.423 386.262 C 9.319 386.546,9.628 386.683,10.227 386.617 C 11.161 386.514,11.358 386.818,11.310 388.284 C 11.301 388.551,11.408 388.739,11.547 388.703 C 12.637 388.422,14.761 389.323,14.874 390.113 C 14.954 390.678,15.326 391.046,15.900 391.128 C 16.395 391.198,16.800 391.507,16.800 391.814 C 16.800 392.361,18.062 393.262,18.684 393.158 C 19.961 392.945,20.757 393.287,20.872 394.100 C 20.981 394.868,21.279 395.018,22.900 395.122 C 24.474 395.223,24.800 395.377,24.800 396.022 C 24.800 396.450,24.845 396.813,24.900 396.828 C 24.955 396.844,26.170 396.941,27.600 397.044 C 30.865 397.279,31.266 397.422,31.119 398.295 C 31.006 398.966,34.321 399.005,99.600 399.097 C 137.330 399.150,167.996 399.060,167.746 398.897 C 167.497 398.734,167.224 398.240,167.141 397.800 C 167.020 397.165,166.497 396.919,164.592 396.600 C 163.273 396.380,161.750 395.885,161.208 395.500 C 160.666 395.115,159.927 394.800,159.567 394.800 C 159.206 394.800,158.289 394.378,157.529 393.862 C 156.769 393.346,155.659 392.801,155.063 392.652 C 154.467 392.502,153.654 392.069,153.256 391.690 C 152.858 391.310,152.084 390.730,151.536 390.400 C 150.987 390.070,149.952 389.440,149.234 389.000 C 147.299 387.814,140.800 381.226,140.800 380.451 C 140.800 380.267,140.350 379.631,139.800 379.038 C 139.250 378.444,138.800 377.726,138.800 377.441 C 138.800 377.157,138.459 376.615,138.041 376.237 C 137.624 375.860,137.077 374.735,136.826 373.738 C 136.575 372.741,136.070 371.469,135.705 370.911 C 135.181 370.112,134.963 368.263,134.682 362.248 C 134.266 353.347,134.158 83.875,134.558 51.614 C 134.844 28.501,134.828 28.753,136.267 26.040 C 136.780 25.073,137.200 24.060,137.200 23.789 C 137.200 23.519,137.452 23.089,137.761 22.833 C 138.069 22.577,138.435 21.916,138.573 21.364 C 138.863 20.209,143.797 13.763,144.639 13.441 C 144.947 13.322,145.200 12.949,145.200 12.613 C 145.200 12.276,145.349 12.000,145.531 12.000 C 145.713 12.000,147.125 11.031,148.668 9.847 C 150.212 8.663,151.846 7.576,152.300 7.432 C 152.754 7.287,153.220 6.925,153.335 6.625 C 153.450 6.326,154.232 5.860,155.072 5.590 C 155.912 5.320,156.902 4.835,157.271 4.513 C 157.641 4.191,158.718 3.754,159.665 3.541 C 160.613 3.328,161.691 2.879,162.062 2.544 C 162.432 2.209,164.010 1.737,165.568 1.496 C 167.429 1.208,168.400 0.876,168.400 0.529 C 168.400 0.092,156.416 0.000,99.800 0.000 C 37.935 0.000,31.200 0.061,31.200 0.624 M59.409 20.597 C 59.854 20.873,61.024 21.229,62.009 21.388 C 62.994 21.547,64.250 21.969,64.800 22.327 C 65.350 22.684,66.277 23.252,66.859 23.588 C 70.530 25.708,73.921 29.010,74.573 31.100 C 74.728 31.595,75.015 32.000,75.212 32.000 C 77.583 32.000,78.416 69.422,76.442 87.282 C 76.007 91.218,71.202 98.400,69.003 98.400 C 68.777 98.400,68.368 98.760,68.093 99.200 C 67.818 99.640,67.296 100.000,66.932 100.000 C 66.568 100.000,65.534 100.427,64.635 100.949 C 63.736 101.470,61.952 102.025,60.671 102.181 C 59.391 102.337,57.731 102.720,56.984 103.032 C 55.390 103.699,50.538 103.785,48.935 103.175 C 48.321 102.942,46.554 102.488,45.009 102.166 C 43.464 101.844,42.020 101.347,41.800 101.061 C 41.580 100.774,40.784 100.327,40.030 100.067 C 38.518 99.544,38.586 99.598,34.547 95.731 C 32.677 93.941,31.529 92.483,31.216 91.500 C 30.953 90.675,30.591 90.000,30.412 90.000 C 28.521 90.000,28.475 35.849,30.365 33.837 C 30.817 33.356,31.302 32.392,31.441 31.695 C 31.665 30.576,35.917 25.600,36.649 25.600 C 36.784 25.600,37.509 25.060,38.261 24.400 C 39.013 23.740,39.942 23.200,40.325 23.200 C 40.708 23.200,41.310 22.863,41.663 22.452 C 42.078 21.967,43.128 21.601,44.651 21.412 C 45.943 21.251,47.360 20.918,47.800 20.672 C 49.674 19.624,57.758 19.572,59.409 20.597 M50.156 57.510 C 47.350 59.370,46.632 61.310,47.900 63.598 C 49.034 65.644,53.424 67.517,54.620 66.466 C 54.829 66.282,55.841 65.823,56.868 65.445 C 59.602 64.440,60.576 58.400,58.004 58.400 C 57.801 58.400,56.972 57.950,56.162 57.400 C 54.207 56.073,52.270 56.109,50.156 57.510 M233.513 68.025 C 231.847 68.996,231.398 71.063,231.433 77.600 C 231.494 89.056,231.201 88.800,244.244 88.800 C 258.492 88.800,258.000 89.194,258.000 77.796 C 258.000 69.956,257.778 68.792,256.137 68.044 C 254.877 67.470,234.494 67.453,233.513 68.025 M332.108 144.380 C 324.996 144.777,324.898 144.917,324.842 154.800 C 324.777 166.209,324.024 165.600,338.200 165.600 C 352.512 165.600,352.000 165.964,352.000 155.797 C 352.000 148.216,351.591 146.223,349.848 145.320 C 348.728 144.739,340.781 143.937,337.600 144.084 C 337.050 144.109,334.579 144.243,332.108 144.380 M234.005 144.910 C 231.670 145.730,231.396 146.790,231.425 154.905 C 231.442 159.826,231.596 162.156,231.925 162.485 C 232.186 162.746,232.400 163.256,232.400 163.618 C 232.400 165.463,233.238 165.603,244.031 165.553 C 258.920 165.483,257.951 166.237,257.981 154.706 L 258.000 147.213 256.833 145.906 L 255.667 144.600 245.533 144.510 C 238.352 144.446,234.993 144.563,234.005 144.910 M326.702 183.591 C 325.159 184.805,324.882 186.151,324.840 192.647 C 324.778 202.177,325.286 203.225,330.062 203.424 L 333.000 203.547 330.287 203.240 C 326.696 202.835,326.708 202.855,326.323 196.737 C 325.909 190.170,326.394 184.486,327.433 183.726 C 328.175 183.184,346.762 182.932,348.651 183.439 C 350.169 183.847,350.400 185.210,350.394 193.719 C 350.387 203.223,350.525 202.865,346.732 203.213 L 343.800 203.483 346.326 203.541 C 351.139 203.653,352.000 202.099,352.000 193.294 C 352.000 187.596,351.953 187.251,350.900 185.172 L 349.800 183.000 338.762 182.894 C 328.226 182.792,327.677 182.824,326.702 183.591 M188.600 221.032 C 188.160 221.141,187.426 221.310,186.969 221.406 C 185.453 221.725,185.200 223.192,185.200 231.645 C 185.200 242.585,184.576 242.007,196.360 241.987 C 211.643 241.961,210.957 242.403,211.133 232.487 C 211.284 223.990,210.981 222.202,209.279 221.553 C 208.171 221.130,190.036 220.673,188.600 221.032 M326.200 340.300 L 325.000 341.800 325.000 349.400 L 325.000 357.000 326.147 358.500 L 327.295 360.000 338.442 360.000 L 349.590 360.000 350.695 358.300 C 352.414 355.655,352.414 343.068,350.694 340.470 L 349.589 338.800 338.494 338.800 L 327.400 338.800 326.200 340.300 " stroke="none" fill="#ebebe3" fill-rule="evenodd"></path><path id="path2" d="M168.400 0.600 C 168.400 0.930,168.580 1.200,168.800 1.200 C 169.020 1.200,169.200 0.930,169.200 0.600 C 169.200 0.270,169.020 0.000,168.800 0.000 C 168.580 0.000,168.400 0.270,168.400 0.600 M162.941 1.997 C 162.468 2.188,161.952 2.555,161.793 2.812 C 161.584 3.150,161.760 3.143,162.428 2.785 C 162.937 2.513,163.814 2.150,164.377 1.979 C 165.166 1.740,165.217 1.667,164.600 1.660 C 164.160 1.655,163.413 1.807,162.941 1.997 M159.256 3.599 C 158.516 3.774,157.616 4.238,157.256 4.630 C 156.629 5.311,156.647 5.313,157.686 4.671 C 158.283 4.302,159.093 3.997,159.486 3.994 C 159.879 3.991,160.470 3.813,160.800 3.600 C 161.491 3.154,161.143 3.154,159.256 3.599 M154.500 5.796 C 153.785 6.107,153.200 6.544,153.200 6.767 C 153.200 7.081,155.359 6.100,156.367 5.328 C 156.785 5.007,155.676 5.285,154.500 5.796 M152.020 7.492 C 151.701 7.617,150.196 8.675,148.675 9.842 C 147.154 11.009,145.704 12.037,145.454 12.127 C 145.205 12.217,145.099 12.399,145.220 12.532 C 145.342 12.665,146.692 11.790,148.220 10.588 C 149.749 9.385,151.405 8.225,151.900 8.011 C 152.583 7.714,153.260 7.055,152.700 7.232 C 152.645 7.249,152.339 7.366,152.020 7.492 M144.095 13.900 C 142.728 15.106,138.926 20.170,138.609 21.208 C 138.442 21.754,138.078 22.470,137.800 22.800 C 137.522 23.130,137.169 23.850,137.016 24.400 C 136.648 25.723,138.108 23.474,138.995 21.351 C 139.606 19.887,142.608 15.851,144.358 14.138 C 145.471 13.050,145.267 12.866,144.095 13.900 M50.800 19.971 C 49.590 20.106,48.240 20.451,47.800 20.736 C 47.050 21.222,47.063 21.238,48.000 20.979 C 49.922 20.447,55.556 20.324,57.627 20.769 C 59.830 21.241,60.564 21.120,59.334 20.487 C 58.323 19.967,53.463 19.673,50.800 19.971 M41.829 22.229 C 41.070 22.987,40.988 23.474,41.722 22.865 C 42.008 22.627,42.683 22.256,43.222 22.041 C 44.153 21.670,44.158 21.649,43.329 21.625 C 42.849 21.611,42.174 21.883,41.829 22.229 M62.983 21.892 C 63.414 22.001,64.224 22.360,64.783 22.689 L 65.800 23.287 64.856 22.443 C 64.336 21.980,63.526 21.621,63.056 21.646 C 62.266 21.689,62.260 21.708,62.983 21.892 M174.613 22.688 C 173.960 22.788,172.942 23.214,172.351 23.635 C 171.760 24.056,171.014 24.400,170.693 24.400 C 170.372 24.400,169.431 24.940,168.600 25.600 C 167.769 26.260,166.845 26.800,166.545 26.800 C 166.245 26.800,166.000 27.062,166.000 27.382 C 166.000 27.702,165.572 28.392,165.048 28.916 C 164.524 29.439,163.963 30.303,163.801 30.834 C 163.638 31.365,163.212 32.134,162.853 32.542 C 162.252 33.225,162.192 46.371,162.099 198.482 L 161.997 363.680 163.229 366.140 C 164.815 369.310,166.405 371.600,167.018 371.600 C 167.284 371.600,167.729 371.874,168.007 372.208 C 168.285 372.543,169.882 373.484,171.556 374.300 L 174.600 375.784 267.666 375.792 L 360.732 375.800 361.926 374.918 C 362.583 374.432,363.593 373.917,364.170 373.772 C 364.748 373.627,365.396 373.181,365.610 372.781 C 365.824 372.381,366.350 371.943,366.779 371.807 C 367.208 371.670,367.667 371.217,367.800 370.800 C 367.933 370.383,368.392 369.930,368.820 369.794 C 369.249 369.657,369.600 369.292,369.600 368.982 C 369.600 368.672,370.035 368.134,370.566 367.785 C 371.415 367.229,371.562 366.756,371.782 363.876 C 372.740 351.294,372.627 38.545,371.662 33.093 C 371.476 32.044,371.051 30.874,370.717 30.493 C 368.207 27.633,365.093 24.841,363.981 24.453 C 363.250 24.198,362.307 23.677,361.884 23.295 C 361.186 22.662,359.603 22.589,344.221 22.480 L 327.325 22.360 326.310 23.691 C 325.392 24.895,325.280 25.449,325.142 29.485 C 325.010 33.349,324.875 34.071,324.141 34.874 C 323.674 35.383,323.173 36.192,323.028 36.671 C 322.787 37.467,321.492 38.486,318.847 39.959 C 316.096 41.493,223.363 42.782,221.088 41.318 C 220.820 41.146,219.367 40.793,217.860 40.534 C 215.892 40.196,214.955 39.828,214.537 39.231 C 214.217 38.774,213.744 38.400,213.487 38.400 C 212.970 38.400,210.400 35.658,210.400 35.105 C 210.400 34.913,210.024 33.931,209.565 32.923 C 209.076 31.849,208.635 29.830,208.500 28.045 C 208.294 25.316,208.142 24.876,207.035 23.800 L 205.800 22.600 190.800 22.553 C 182.550 22.527,175.266 22.588,174.613 22.688 M38.306 24.439 L 37.000 25.677 38.200 24.900 C 38.860 24.472,39.760 23.920,40.200 23.673 C 40.890 23.286,40.904 23.223,40.306 23.212 C 39.925 23.205,39.025 23.757,38.306 24.439 M66.400 23.543 C 69.975 26.036,73.124 29.196,74.578 31.750 C 75.345 33.098,75.978 33.913,75.986 33.561 C 75.994 33.210,75.640 32.507,75.200 32.000 C 74.760 31.493,74.400 30.864,74.400 30.603 C 74.400 29.577,68.262 23.925,66.540 23.365 C 65.933 23.168,65.908 23.200,66.400 23.543 M33.900 28.097 C 32.635 29.432,31.605 30.812,31.612 31.162 C 31.622 31.652,31.726 31.615,32.062 31.000 C 32.303 30.560,33.507 29.165,34.738 27.900 C 35.968 26.635,36.801 25.616,36.587 25.634 C 36.374 25.653,35.165 26.761,33.900 28.097 M135.884 26.766 C 135.315 27.728,134.343 32.490,134.448 33.800 C 134.516 34.655,135.122 32.124,135.160 30.826 C 135.182 30.071,135.581 28.666,136.046 27.705 C 137.011 25.711,136.897 25.050,135.884 26.766 M30.230 33.967 C 29.234 35.068,28.778 49.564,29.127 69.000 L 29.400 84.200 29.600 59.782 C 29.784 37.280,29.856 35.279,30.509 34.282 C 31.338 33.017,31.215 32.878,30.230 33.967 M76.744 45.600 C 77.072 57.128,77.069 68.891,76.737 79.000 C 76.490 86.517,76.501 86.710,76.918 82.200 C 77.490 76.024,77.495 47.653,76.925 41.400 C 76.532 37.074,76.514 37.488,76.744 45.600 M134.263 157.300 C 134.130 215.875,134.151 285.040,134.310 311.000 C 134.520 345.164,134.613 315.749,134.647 204.500 C 134.673 119.965,134.652 50.800,134.600 50.800 C 134.548 50.800,134.396 98.725,134.263 157.300 M49.383 57.516 C 45.676 60.818,46.119 64.062,50.594 66.376 C 54.880 68.592,61.299 64.625,59.618 60.800 C 59.200 59.848,59.188 59.861,59.375 61.080 C 59.723 63.345,58.959 64.676,56.868 65.445 C 55.841 65.823,54.829 66.282,54.620 66.466 C 52.811 68.056,47.200 64.377,47.200 61.600 C 47.200 60.836,48.433 58.407,48.822 58.403 C 48.945 58.401,49.655 57.950,50.400 57.400 C 51.145 56.850,51.495 56.407,51.178 56.416 C 50.860 56.425,50.052 56.920,49.383 57.516 M56.191 57.420 C 57.018 57.981,57.772 58.361,57.868 58.265 C 58.146 57.987,55.953 56.400,55.290 56.400 C 54.959 56.400,55.365 56.859,56.191 57.420 M350.193 67.597 C 352.075 68.313,352.400 69.944,352.400 78.670 L 352.400 86.566 350.919 88.083 L 349.438 89.600 338.283 89.600 C 325.812 89.600,326.742 89.808,324.892 86.600 C 322.998 83.316,324.546 68.406,326.877 67.473 C 327.861 67.079,349.128 67.192,350.193 67.597 M210.961 69.359 C 211.857 71.194,212.050 83.254,211.232 86.284 C 210.598 88.633,209.748 88.795,198.028 88.798 C 184.296 88.801,184.775 89.092,184.486 80.568 C 184.246 73.505,184.594 69.970,185.664 68.610 L 186.467 67.588 198.334 67.694 L 210.200 67.800 210.961 69.359 M256.137 68.044 C 259.472 69.564,258.764 87.121,255.315 88.432 C 252.961 89.327,234.207 88.874,233.319 87.900 C 230.473 84.779,230.620 69.711,233.513 68.025 C 234.494 67.453,254.877 67.470,256.137 68.044 M303.440 68.960 L 304.800 70.320 304.800 77.941 C 304.800 86.980,304.692 87.355,301.834 88.234 C 297.270 89.637,283.410 89.357,280.401 87.801 C 278.787 86.966,278.662 86.224,278.629 77.268 L 278.600 69.537 279.722 68.568 L 280.845 67.600 291.462 67.600 L 302.080 67.600 303.440 68.960 M29.672 86.639 C 29.616 88.548,29.768 89.272,30.375 89.972 C 30.802 90.463,31.257 91.350,31.387 91.942 C 31.672 93.240,38.590 100.000,39.634 100.000 C 40.263 100.000,40.054 99.774,38.165 98.418 C 33.330 94.945,30.169 90.283,29.884 86.200 C 29.748 84.249,29.742 84.259,29.672 86.639 M75.903 88.700 C 75.628 90.734,74.274 92.862,71.339 95.874 C 68.527 98.761,68.480 99.295,71.274 96.618 C 74.429 93.595,77.845 87.200,76.305 87.200 C 76.195 87.200,76.014 87.875,75.903 88.700 M68.000 98.672 C 68.000 98.895,67.595 99.273,67.100 99.512 C 66.455 99.823,66.385 99.954,66.851 99.973 C 67.590 100.004,68.647 98.914,68.257 98.524 C 68.116 98.382,68.000 98.449,68.000 98.672 M64.461 100.642 C 63.957 100.995,63.062 101.430,62.472 101.608 C 61.668 101.850,61.600 101.937,62.200 101.953 C 62.640 101.965,63.720 101.532,64.600 100.990 C 65.480 100.448,66.015 100.003,65.789 100.002 C 65.563 100.001,64.966 100.289,64.461 100.642 M41.600 100.787 C 41.600 101.336,43.533 102.087,44.368 101.863 C 44.811 101.743,44.758 101.679,44.189 101.646 C 43.743 101.621,42.978 101.320,42.489 100.977 C 41.969 100.613,41.600 100.534,41.600 100.787 M47.000 102.664 C 50.124 103.616,55.138 103.806,56.811 103.035 C 58.159 102.414,58.165 102.403,57.000 102.638 C 55.288 102.983,50.085 102.840,48.200 102.396 C 45.664 101.799,44.797 101.992,47.000 102.664 M209.100 106.001 C 211.283 107.436,212.402 122.865,210.523 125.611 C 209.440 127.194,209.488 127.187,198.494 127.194 L 187.988 127.200 186.527 125.861 L 185.067 124.523 185.067 116.657 L 185.067 108.792 186.276 107.296 C 187.880 105.313,188.313 105.246,199.000 105.333 C 206.353 105.394,208.381 105.528,209.100 106.001 M257.293 106.708 L 258.600 108.015 258.600 116.438 L 258.600 124.861 257.106 126.231 L 255.612 127.600 244.723 127.600 L 233.834 127.600 232.317 126.119 L 230.800 124.638 230.800 116.677 C 230.800 107.949,230.590 108.895,233.243 105.677 C 233.584 105.264,236.013 105.180,244.830 105.277 L 255.986 105.400 257.293 106.708 M302.653 105.852 C 304.698 106.822,304.934 107.607,305.125 114.079 C 305.522 127.563,305.888 127.200,291.886 127.200 C 277.511 127.200,278.291 127.881,278.476 115.492 C 278.615 106.242,278.647 106.134,281.473 105.587 C 284.784 104.947,301.177 105.152,302.653 105.852 M349.315 105.568 C 352.801 106.893,353.914 122.541,350.762 125.914 L 349.559 127.200 338.280 127.200 L 327.000 127.200 325.800 125.700 L 324.600 124.200 324.469 116.470 C 324.327 108.098,324.631 106.796,326.995 105.646 C 328.026 105.144,348.018 105.074,349.315 105.568 M301.754 144.415 C 305.071 145.439,304.967 145.071,304.986 155.886 C 305.004 166.958,306.488 165.800,292.286 165.800 C 276.831 165.800,278.313 166.821,278.087 156.016 C 277.886 146.433,278.058 145.673,280.693 144.517 C 283.547 143.264,297.804 143.195,301.754 144.415 M343.600 144.355 C 351.759 144.874,352.000 145.201,352.000 155.797 C 352.000 165.964,352.512 165.600,338.200 165.600 C 324.024 165.600,324.777 166.209,324.842 154.800 C 324.903 144.170,324.274 144.698,337.600 144.084 C 338.150 144.058,340.850 144.181,343.600 144.355 M256.833 145.906 L 258.000 147.213 257.981 154.706 C 257.951 166.237,258.920 165.483,244.031 165.553 C 233.238 165.603,232.400 165.463,232.400 163.618 C 232.400 163.256,232.186 162.746,231.925 162.485 C 231.159 161.719,231.227 148.142,232.005 146.600 C 233.011 144.603,234.262 144.410,245.533 144.510 L 255.667 144.600 256.833 145.906 M207.118 145.063 C 211.536 145.407,211.400 145.098,211.400 154.818 C 211.400 166.261,212.145 165.686,197.536 165.519 C 184.272 165.366,185.445 166.268,185.274 156.090 C 185.125 147.197,185.258 146.212,186.717 145.420 C 187.900 144.778,200.604 144.556,207.118 145.063 M209.289 182.818 C 211.461 183.421,211.691 184.593,211.532 194.283 C 211.360 204.809,212.266 204.156,197.800 204.183 C 184.070 204.209,184.588 204.649,184.622 193.000 C 184.645 184.702,184.950 183.269,186.800 182.757 C 188.421 182.308,207.640 182.360,209.289 182.818 M254.928 182.661 C 255.857 182.815,256.679 183.254,257.025 183.782 C 258.650 186.261,258.527 201.187,256.867 202.892 C 254.809 205.007,234.917 204.917,232.276 202.781 C 230.415 201.275,230.898 185.653,232.876 183.410 C 233.602 182.586,250.916 181.998,254.928 182.661 M301.645 182.804 C 302.830 183.027,304.025 183.511,304.300 183.881 C 304.864 184.638,305.028 201.423,304.480 202.284 C 302.930 204.723,280.807 205.019,278.823 202.628 C 278.542 202.289,278.351 199.030,278.292 193.550 C 278.194 184.445,278.352 183.517,280.126 182.803 C 281.347 182.311,299.023 182.312,301.645 182.804 M350.900 185.172 C 353.142 189.598,352.278 201.767,349.622 203.188 C 348.768 203.645,329.245 203.701,327.636 203.251 C 325.369 202.616,325.009 201.376,324.902 193.826 C 324.738 182.255,324.107 182.753,338.762 182.894 L 349.800 183.000 350.900 185.172 M303.703 220.994 C 304.793 221.450,304.959 222.801,304.980 231.400 C 305.003 240.748,304.876 241.442,302.999 242.226 C 301.014 243.056,281.919 243.067,281.233 242.239 C 280.977 241.931,280.333 241.569,279.802 241.436 C 278.338 241.069,278.005 239.113,278.002 230.887 C 278.000 222.082,278.294 220.954,280.669 220.667 C 283.039 220.382,302.911 220.664,303.703 220.994 M209.279 221.553 C 210.981 222.202,211.284 223.990,211.133 232.487 C 210.957 242.403,211.643 241.961,196.360 241.987 C 184.576 242.007,185.200 242.585,185.200 231.645 C 185.200 223.192,185.453 221.725,186.969 221.406 C 187.426 221.310,188.160 221.141,188.600 221.032 C 190.036 220.673,208.171 221.130,209.279 221.553 M257.220 222.100 C 258.515 224.181,258.245 239.535,256.890 240.890 C 255.592 242.187,234.781 242.561,233.241 241.314 C 230.971 239.476,230.209 225.101,232.251 222.658 C 233.774 220.836,233.610 220.859,245.506 220.828 L 256.412 220.800 257.220 222.100 M255.794 338.653 C 258.858 339.829,259.012 358.388,255.971 360.015 C 255.185 360.436,237.137 360.546,234.710 360.145 C 231.893 359.679,231.442 358.263,231.419 349.800 C 231.395 340.600,232.025 338.783,235.400 338.334 C 237.583 338.044,254.912 338.315,255.794 338.653 M209.786 339.641 L 211.200 340.883 211.200 349.235 L 211.200 357.587 210.033 358.894 L 208.867 360.200 198.643 360.319 C 185.233 360.476,185.488 360.658,185.003 350.563 C 184.423 338.488,184.366 338.535,199.486 338.450 L 208.372 338.400 209.786 339.641 M298.685 338.661 C 301.660 338.892,302.105 339.039,303.385 340.212 L 304.800 341.508 304.800 349.374 L 304.800 357.241 303.334 358.584 C 301.412 360.344,301.022 360.400,290.569 360.400 C 277.988 360.400,278.400 360.729,278.400 350.676 C 278.400 340.147,278.647 339.478,282.800 338.757 C 284.767 338.415,294.755 338.355,298.685 338.661 M350.694 340.470 C 352.414 343.068,352.414 355.655,350.695 358.300 L 349.590 360.000 338.442 360.000 L 327.295 360.000 326.147 358.500 L 325.000 357.000 325.000 349.400 L 325.000 341.800 326.200 340.300 L 327.400 338.800 338.494 338.800 L 349.589 338.800 350.694 340.470 M134.951 364.400 C 134.951 366.930,135.016 367.965,135.096 366.700 C 135.175 365.435,135.175 363.365,135.096 362.100 C 135.016 360.835,134.951 361.870,134.951 364.400 M135.232 369.611 C 135.214 369.947,135.460 370.594,135.778 371.048 C 136.096 371.502,136.565 372.701,136.820 373.712 C 137.074 374.723,137.646 375.877,138.091 376.275 C 138.871 376.974,138.870 376.951,138.051 375.600 C 137.585 374.830,137.200 373.930,137.196 373.600 C 137.187 372.757,135.270 368.865,135.232 369.611 M138.800 377.536 C 138.800 377.791,139.150 378.350,139.579 378.779 C 140.007 379.207,140.646 380.116,141.000 380.799 C 141.353 381.482,141.896 382.139,142.206 382.258 C 142.516 382.377,142.873 382.801,143.000 383.201 C 143.127 383.601,143.707 384.241,144.290 384.622 C 145.027 385.105,144.688 384.516,143.174 382.682 C 141.978 381.234,140.505 379.379,139.900 378.560 C 139.295 377.741,138.800 377.280,138.800 377.536 M146.400 386.739 C 148.329 388.455,150.391 389.915,151.700 390.491 C 152.305 390.758,152.800 391.111,152.800 391.277 C 152.800 391.745,155.195 392.873,155.727 392.656 C 155.989 392.549,155.901 392.449,155.531 392.432 C 155.163 392.414,154.353 391.975,153.731 391.455 C 153.109 390.935,152.195 390.383,151.700 390.228 C 151.205 390.073,150.800 389.782,150.800 389.581 C 150.800 389.380,150.113 388.866,149.273 388.437 C 148.434 388.009,147.503 387.365,147.206 387.007 C 146.909 386.649,146.291 386.162,145.833 385.925 C 145.375 385.688,145.630 386.054,146.400 386.739 M157.138 393.598 C 157.654 394.033,158.758 394.573,159.591 394.798 C 160.425 395.022,161.330 395.474,161.602 395.803 C 161.875 396.131,162.571 396.397,163.149 396.392 C 163.939 396.387,163.605 396.132,161.800 395.365 C 160.480 394.805,158.680 394.000,157.800 393.577 C 156.203 392.808,156.202 392.808,157.138 393.598 M167.093 397.754 C 167.371 399.206,168.490 399.522,168.326 398.101 C 168.255 397.480,167.920 396.954,167.552 396.884 C 167.058 396.790,166.949 396.997,167.093 397.754 " stroke="none" fill="#a4dbf3" fill-rule="evenodd"></path><path id="path3" d="M326.171 106.669 C 324.283 108.706,324.134 123.046,325.975 125.500 L 326.950 126.800 338.255 126.800 L 349.559 126.800 350.680 125.330 L 351.800 123.861 351.800 116.590 C 351.800 109.172,351.637 108.212,350.055 106.300 C 349.529 105.664,348.457 105.600,338.319 105.600 L 327.162 105.600 326.171 106.669 M186.638 145.722 C 185.212 146.766,184.707 161.184,186.012 163.622 C 187.470 166.346,207.826 166.625,210.240 163.955 C 211.231 162.858,211.416 147.023,210.451 145.861 C 209.716 144.976,187.833 144.849,186.638 145.722 M281.473 182.787 C 278.587 183.346,278.591 183.331,278.673 193.477 C 278.728 200.288,278.871 202.597,279.254 202.833 C 280.978 203.899,299.672 204.094,302.600 203.077 C 304.159 202.535,304.208 202.460,304.525 200.160 C 305.063 196.264,304.630 184.459,303.925 183.753 C 302.900 182.729,285.619 181.985,281.473 182.787 M327.433 183.726 C 326.000 184.774,325.709 201.069,327.098 202.458 C 328.598 203.958,349.079 203.866,350.036 202.356 C 350.566 201.519,350.491 185.837,349.951 184.653 C 349.317 183.260,348.916 183.212,337.976 183.205 C 330.479 183.201,327.982 183.325,327.433 183.726 " stroke="none" fill="#f27d46" fill-rule="evenodd"></path><path id="path4" d="M169.200 0.559 C 169.200 0.935,168.331 1.269,166.545 1.580 C 165.084 1.835,163.020 2.483,161.958 3.021 C 160.896 3.560,159.776 4.000,159.469 4.000 C 159.162 4.000,157.581 4.743,155.955 5.650 C 154.330 6.558,152.637 7.503,152.192 7.750 C 150.698 8.582,146.669 11.786,145.027 13.447 C 141.189 17.333,139.755 19.596,135.932 27.800 L 135.000 29.800 134.697 113.400 C 134.381 200.675,134.675 353.263,135.180 363.480 C 135.513 370.224,136.973 374.752,140.154 378.904 C 144.646 384.767,147.148 387.350,149.500 388.555 C 150.215 388.921,150.800 389.384,150.800 389.583 C 150.800 389.783,151.205 390.069,151.700 390.219 C 152.195 390.369,152.960 390.799,153.400 391.175 C 154.181 391.841,157.320 393.411,161.452 395.203 C 162.581 395.692,164.561 396.303,165.852 396.560 C 167.970 396.983,168.212 397.135,168.327 398.114 C 168.521 399.780,170.400 399.691,170.400 398.015 C 170.400 396.864,167.942 395.600,165.702 395.600 C 165.398 395.600,164.165 395.150,162.963 394.600 C 161.760 394.050,160.611 393.600,160.409 393.600 C 160.207 393.600,159.196 393.150,158.162 392.600 C 157.127 392.050,156.060 391.600,155.789 391.600 C 155.519 391.600,155.065 391.320,154.781 390.977 C 154.496 390.634,153.709 390.093,153.032 389.774 C 150.423 388.545,146.559 385.535,144.984 383.505 C 144.333 382.665,142.945 380.922,141.900 379.630 C 140.855 378.339,140.000 377.119,140.000 376.919 C 140.000 376.719,139.568 375.970,139.040 375.254 C 138.512 374.539,137.957 373.289,137.807 372.477 C 137.656 371.665,137.143 370.370,136.666 369.600 L 135.800 368.200 135.800 199.400 L 135.800 30.600 136.651 29.000 C 137.119 28.120,137.633 26.796,137.792 26.057 C 137.952 25.318,138.514 24.078,139.041 23.301 C 139.569 22.524,140.000 21.714,140.000 21.502 C 140.000 21.289,140.458 20.550,141.017 19.858 C 141.576 19.166,142.341 18.168,142.717 17.640 C 143.524 16.505,147.426 12.590,149.056 11.280 C 149.685 10.774,150.704 9.919,151.321 9.380 C 151.937 8.841,152.631 8.400,152.863 8.400 C 153.095 8.400,153.819 7.950,154.473 7.400 C 155.127 6.850,155.983 6.400,156.377 6.400 C 156.770 6.400,157.521 6.063,158.046 5.652 C 158.571 5.241,159.630 4.773,160.400 4.613 C 161.170 4.453,162.341 4.012,163.002 3.633 C 163.663 3.253,165.373 2.718,166.802 2.444 C 172.314 1.386,174.582 0.000,170.800 0.000 C 169.697 0.000,169.200 0.174,169.200 0.559 M49.541 20.593 C 49.435 20.698,47.967 21.049,46.278 21.372 C 40.242 22.527,33.933 27.327,31.267 32.792 L 29.800 35.800 29.800 61.809 L 29.800 87.817 31.164 90.587 C 37.039 102.520,57.548 106.957,68.341 98.629 C 72.307 95.570,75.482 91.260,75.999 88.233 C 77.183 81.310,77.383 57.270,76.398 40.315 C 75.939 32.431,74.789 30.296,67.955 24.643 C 64.661 21.919,51.180 18.953,49.541 20.593 M179.000 20.804 C 178.120 20.978,176.096 21.335,174.501 21.597 C 172.907 21.858,171.505 22.231,171.385 22.425 C 171.265 22.619,170.409 23.113,169.483 23.524 C 165.590 25.251,161.687 30.326,161.170 34.335 C 160.721 37.818,160.721 360.582,161.170 364.065 C 161.967 370.246,168.607 375.993,175.898 376.813 C 188.501 378.230,352.578 378.110,360.000 376.678 C 364.744 375.763,370.563 371.211,372.496 366.904 C 373.926 363.717,373.988 356.944,374.027 199.266 C 374.065 46.047,373.997 35.659,372.945 32.327 C 371.367 27.328,365.462 22.519,359.769 21.596 C 358.246 21.349,356.025 20.979,354.833 20.774 C 351.946 20.276,331.483 20.312,329.200 20.819 C 324.786 21.800,324.000 22.972,324.000 28.573 C 324.000 34.018,322.266 36.751,317.200 39.293 C 316.414 39.687,305.636 39.796,266.934 39.797 L 217.668 39.800 216.526 38.956 C 215.898 38.492,215.004 37.992,214.538 37.844 C 212.622 37.236,210.751 32.861,209.841 26.858 C 209.224 22.786,207.801 21.740,201.800 20.946 C 197.453 20.371,181.672 20.273,179.000 20.804 M58.410 22.014 C 61.877 22.437,66.080 24.141,67.485 25.694 C 67.836 26.082,68.288 26.400,68.488 26.400 C 69.005 26.400,73.200 30.658,73.200 31.182 C 73.200 31.422,73.673 32.331,74.250 33.204 L 75.301 34.792 75.678 49.000 C 76.100 64.929,75.612 87.906,74.815 89.600 C 73.719 91.929,72.882 93.117,70.938 95.100 C 69.806 96.255,68.692 97.200,68.462 97.200 C 68.233 97.200,67.810 97.529,67.523 97.931 C 67.235 98.334,66.382 98.876,65.626 99.136 C 64.870 99.397,63.970 99.860,63.626 100.165 C 61.418 102.124,45.817 101.972,43.268 99.968 C 42.731 99.546,41.861 99.200,41.334 99.200 C 40.806 99.200,40.269 98.923,40.139 98.585 C 40.009 98.247,39.398 97.709,38.780 97.390 C 37.309 96.629,32.400 91.662,32.400 90.934 C 32.400 90.623,31.995 89.610,31.500 88.684 L 30.600 87.000 30.482 63.298 C 30.411 48.964,30.519 38.846,30.755 37.698 C 33.111 26.231,43.712 20.220,58.410 22.014 M207.035 23.800 C 208.142 24.876,208.294 25.316,208.500 28.045 C 208.635 29.830,209.076 31.849,209.565 32.923 C 210.024 33.931,210.400 34.913,210.400 35.105 C 210.400 35.658,212.970 38.400,213.487 38.400 C 213.744 38.400,214.217 38.774,214.537 39.231 C 214.955 39.828,215.892 40.196,217.860 40.534 C 219.367 40.793,220.820 41.146,221.088 41.318 C 223.363 42.782,316.096 41.493,318.847 39.959 C 321.492 38.486,322.787 37.467,323.028 36.671 C 323.173 36.192,323.674 35.383,324.141 34.874 C 324.875 34.071,325.010 33.349,325.142 29.485 C 325.280 25.449,325.392 24.895,326.310 23.691 L 327.325 22.360 344.221 22.480 C 359.603 22.589,361.186 22.662,361.884 23.295 C 362.307 23.677,363.250 24.198,363.981 24.453 C 365.093 24.841,368.207 27.633,370.717 30.493 C 371.051 30.874,371.476 32.044,371.662 33.093 C 372.627 38.545,372.740 351.294,371.782 363.876 C 371.562 366.756,371.415 367.229,370.566 367.785 C 370.035 368.134,369.600 368.672,369.600 368.982 C 369.600 369.292,369.249 369.657,368.820 369.794 C 368.392 369.930,367.933 370.383,367.800 370.800 C 367.667 371.217,367.208 371.670,366.779 371.807 C 366.350 371.943,365.824 372.381,365.610 372.781 C 365.396 373.181,364.748 373.627,364.170 373.772 C 363.593 373.917,362.583 374.432,361.926 374.918 L 360.732 375.800 267.666 375.792 L 174.600 375.784 171.556 374.300 C 169.882 373.484,168.285 372.543,168.007 372.208 C 167.729 371.874,167.284 371.600,167.018 371.600 C 166.405 371.600,164.815 369.310,163.229 366.140 L 161.997 363.680 162.099 198.482 C 162.192 46.371,162.252 33.225,162.853 32.542 C 163.212 32.134,163.638 31.365,163.801 30.834 C 163.963 30.303,164.524 29.439,165.048 28.916 C 165.572 28.392,166.000 27.702,166.000 27.382 C 166.000 27.062,166.245 26.800,166.545 26.800 C 166.845 26.800,167.769 26.260,168.600 25.600 C 169.431 24.940,170.372 24.400,170.693 24.400 C 171.014 24.400,171.760 24.056,172.351 23.635 C 173.907 22.527,174.340 22.502,190.800 22.553 L 205.800 22.600 207.035 23.800 M50.937 55.561 C 46.636 56.661,44.373 61.440,46.700 64.507 C 50.406 69.391,57.381 69.173,60.413 64.077 C 63.050 59.645,56.829 54.054,50.937 55.561 M57.445 57.633 C 60.961 60.420,60.679 64.042,56.795 66.003 C 53.222 67.806,50.513 67.285,47.900 64.291 C 43.799 59.590,52.372 53.610,57.445 57.633 M326.877 67.473 C 324.546 68.406,322.998 83.316,324.892 86.600 C 326.742 89.808,325.812 89.600,338.283 89.600 L 349.438 89.600 350.919 88.083 L 352.400 86.566 352.400 78.670 C 352.400 69.944,352.075 68.313,350.193 67.597 C 349.128 67.192,327.861 67.079,326.877 67.473 M185.664 68.610 C 184.594 69.970,184.246 73.505,184.486 80.568 C 184.775 89.092,184.296 88.801,198.028 88.798 C 209.748 88.795,210.598 88.633,211.232 86.284 C 212.050 83.254,211.857 71.194,210.961 69.359 L 210.200 67.800 198.334 67.694 L 186.467 67.588 185.664 68.610 M279.722 68.568 L 278.600 69.537 278.629 77.268 C 278.662 86.224,278.787 86.966,280.401 87.801 C 283.410 89.357,297.270 89.637,301.834 88.234 C 304.692 87.355,304.800 86.980,304.800 77.941 L 304.800 70.320 303.440 68.960 L 302.080 67.600 291.462 67.600 L 280.845 67.600 279.722 68.568 M188.643 105.529 C 188.007 105.678,186.942 106.473,186.276 107.296 L 185.067 108.792 185.067 116.657 L 185.067 124.523 186.527 125.861 L 187.988 127.200 198.494 127.194 C 204.272 127.191,209.190 127.056,209.423 126.894 C 212.315 124.885,212.053 107.942,209.100 106.001 C 208.130 105.363,191.034 104.969,188.643 105.529 M233.243 105.677 C 230.590 108.895,230.800 107.949,230.800 116.677 L 230.800 124.638 232.317 126.119 L 233.834 127.600 244.723 127.600 L 255.612 127.600 257.106 126.231 L 258.600 124.861 258.600 116.438 L 258.600 108.015 257.293 106.708 L 255.986 105.400 244.830 105.277 C 236.013 105.180,233.584 105.264,233.243 105.677 M281.473 105.587 C 278.647 106.134,278.615 106.242,278.476 115.492 C 278.291 127.881,277.511 127.200,291.886 127.200 C 305.888 127.200,305.522 127.563,305.125 114.079 C 304.857 105.010,305.109 105.181,292.140 105.246 C 287.113 105.271,282.313 105.425,281.473 105.587 M332.924 105.499 C 335.962 105.567,340.822 105.567,343.724 105.499 C 346.626 105.431,344.140 105.375,338.200 105.375 C 332.260 105.375,329.886 105.431,332.924 105.499 M325.023 107.689 C 324.506 108.427,324.414 109.834,324.483 115.989 L 324.566 123.400 324.783 115.760 C 324.943 110.133,325.145 107.946,325.549 107.460 C 325.851 107.097,325.996 106.800,325.872 106.800 C 325.747 106.800,325.365 107.200,325.023 107.689 M350.800 107.487 C 350.800 107.743,350.980 108.064,351.200 108.200 C 351.420 108.336,351.625 108.932,351.654 109.524 C 351.702 110.457,351.732 110.481,351.881 109.706 C 351.976 109.215,351.772 108.410,351.427 107.917 C 351.082 107.425,350.800 107.231,350.800 107.487 M352.161 116.800 C 352.161 120.210,352.222 121.605,352.297 119.900 C 352.372 118.195,352.372 115.405,352.297 113.700 C 352.222 111.995,352.161 113.390,352.161 116.800 M351.600 123.662 C 351.600 123.916,351.137 124.732,350.571 125.474 L 349.541 126.823 338.009 126.712 C 331.666 126.650,326.559 126.735,326.661 126.900 C 326.764 127.065,331.957 127.200,338.203 127.200 L 349.559 127.200 350.778 125.900 C 351.826 124.782,352.425 123.200,351.800 123.200 C 351.690 123.200,351.600 123.408,351.600 123.662 M324.832 124.038 C 324.814 124.389,325.205 125.019,325.700 125.438 C 326.592 126.194,326.594 126.193,325.952 125.400 C 325.596 124.960,325.205 124.330,325.084 124.000 C 324.897 123.491,324.858 123.496,324.832 124.038 M280.693 144.517 C 278.058 145.673,277.886 146.433,278.087 156.016 C 278.264 164.492,278.376 165.063,279.944 165.503 C 282.452 166.208,303.526 165.846,304.286 165.086 C 305.043 164.328,305.369 148.889,304.682 146.315 C 303.965 143.627,285.818 142.267,280.693 144.517 M192.100 145.099 C 194.685 145.168,198.915 145.168,201.500 145.099 C 204.085 145.029,201.970 144.972,196.800 144.972 C 191.630 144.972,189.515 145.029,192.100 145.099 M185.590 146.626 C 185.376 147.190,185.225 148.495,185.255 149.526 C 185.308 151.346,185.317 151.330,185.587 148.971 C 185.740 147.635,185.996 146.330,186.156 146.071 C 186.316 145.812,186.342 145.600,186.214 145.600 C 186.085 145.600,185.805 146.062,185.590 146.626 M211.355 154.600 C 211.356 157.460,211.420 158.578,211.497 157.083 C 211.574 155.589,211.574 153.249,211.496 151.883 C 211.418 150.518,211.355 151.740,211.355 154.600 M185.301 161.400 C 185.305 162.280,185.387 162.593,185.483 162.095 C 185.579 161.598,185.575 160.878,185.475 160.495 C 185.375 160.113,185.296 160.520,185.301 161.400 M185.600 163.552 C 185.600 163.942,187.155 165.398,187.323 165.164 C 187.387 165.074,187.026 164.601,186.520 164.114 C 186.014 163.627,185.600 163.374,185.600 163.552 M186.800 182.757 C 184.950 183.269,184.645 184.702,184.622 193.000 C 184.588 204.649,184.070 204.209,197.800 204.183 C 212.266 204.156,211.360 204.809,211.532 194.283 C 211.691 184.593,211.461 183.421,209.289 182.818 C 207.640 182.360,188.421 182.308,186.800 182.757 M235.310 182.766 C 232.894 183.060,232.765 183.168,231.841 185.680 C 230.712 188.749,231.043 201.784,232.276 202.781 C 234.917 204.917,254.809 205.007,256.867 202.892 C 258.527 201.187,258.650 186.261,257.025 183.782 C 256.158 182.458,242.936 181.840,235.310 182.766 M295.500 182.693 C 296.435 182.777,297.965 182.777,298.900 182.693 C 299.835 182.609,299.070 182.540,297.200 182.540 C 295.330 182.540,294.565 182.609,295.500 182.693 M304.501 185.800 C 304.505 186.680,304.587 186.993,304.683 186.495 C 304.779 185.998,304.775 185.278,304.675 184.895 C 304.575 184.513,304.496 184.920,304.501 185.800 M278.150 190.600 C 278.151 193.020,278.216 193.958,278.296 192.685 C 278.376 191.412,278.375 189.432,278.294 188.285 C 278.214 187.138,278.149 188.180,278.150 190.600 M278.540 199.200 C 278.540 201.070,278.609 201.835,278.693 200.900 C 278.777 199.965,278.777 198.435,278.693 197.500 C 278.609 196.565,278.540 197.330,278.540 199.200 M304.501 200.600 C 304.505 201.480,304.587 201.793,304.683 201.295 C 304.779 200.798,304.775 200.078,304.675 199.695 C 304.575 199.313,304.496 199.720,304.501 200.600 M302.000 203.253 C 300.845 203.718,286.163 203.913,282.600 203.511 C 280.573 203.283,280.417 203.306,281.600 203.660 C 283.963 204.367,300.719 204.224,302.400 203.483 C 303.940 202.804,303.601 202.609,302.000 203.253 M280.669 220.667 C 278.294 220.954,278.000 222.082,278.002 230.887 C 278.005 239.113,278.338 241.069,279.802 241.436 C 280.333 241.569,280.977 241.931,281.233 242.239 C 281.919 243.067,301.014 243.056,302.999 242.226 C 304.876 241.442,305.003 240.748,304.980 231.400 C 304.959 222.801,304.793 221.450,303.703 220.994 C 302.911 220.664,283.039 220.382,280.669 220.667 M233.951 221.128 C 230.443 222.599,229.881 238.593,233.241 241.314 C 234.781 242.561,255.592 242.187,256.890 240.890 C 258.245 239.535,258.515 224.181,257.220 222.100 L 256.412 220.800 245.506 220.828 C 239.508 220.844,234.308 220.979,233.951 221.128 M235.400 338.334 C 232.025 338.783,231.395 340.600,231.419 349.800 C 231.442 358.263,231.893 359.679,234.710 360.145 C 237.137 360.546,255.185 360.436,255.971 360.015 C 259.012 358.388,258.858 339.829,255.794 338.653 C 254.912 338.315,237.583 338.044,235.400 338.334 M188.835 338.786 C 185.273 339.362,184.569 341.526,185.003 350.563 C 185.488 360.658,185.233 360.476,198.643 360.319 L 208.867 360.200 210.033 358.894 L 211.200 357.587 211.200 349.235 L 211.200 340.883 209.786 339.641 L 208.372 338.400 199.486 338.450 C 194.599 338.478,189.806 338.629,188.835 338.786 M282.800 338.757 C 278.647 339.478,278.400 340.147,278.400 350.676 C 278.400 360.729,277.988 360.400,290.569 360.400 C 301.022 360.400,301.412 360.344,303.334 358.584 L 304.800 357.241 304.800 349.374 L 304.800 341.508 303.385 340.212 C 302.105 339.039,301.660 338.892,298.685 338.661 C 294.755 338.355,284.767 338.415,282.800 338.757 " stroke="none" fill="#97a8ac" fill-rule="evenodd"></path></g></svg>