<svg id="svg" version="1.1" xmlns="http://www.w3.org/2000/svg" xmlns:xlink="http://www.w3.org/1999/xlink" width="400" height="400" viewBox="0, 0, 400,400"><g id="svgg"><path id="path0" d="M179.404 0.394 C 179.266 0.617,178.488 0.802,177.676 0.805 C 176.864 0.808,174.760 1.268,173.000 1.829 C 158.732 6.369,149.296 17.409,146.833 32.446 C 146.237 36.088,146.219 363.789,146.815 367.567 C 148.389 377.544,152.759 385.336,160.147 391.342 C 160.998 392.034,161.903 392.780,162.159 393.000 C 164.637 395.130,172.525 398.446,177.200 399.323 C 180.682 399.976,334.482 399.953,334.700 399.300 C 334.792 399.025,335.392 398.800,336.033 398.800 C 336.675 398.800,337.200 398.620,337.200 398.400 C 337.200 398.180,337.740 398.000,338.400 398.000 C 339.060 398.000,339.600 397.854,339.600 397.675 C 339.600 397.496,340.230 397.102,341.000 396.800 C 341.770 396.498,342.400 396.104,342.400 395.925 C 342.400 395.746,342.760 395.600,343.200 395.600 C 343.640 395.600,344.000 395.420,344.000 395.200 C 344.000 394.980,344.248 394.800,344.552 394.800 C 344.855 394.800,345.845 394.080,346.752 393.200 C 347.659 392.320,348.555 391.600,348.744 391.600 C 349.234 391.600,352.800 388.405,352.800 387.966 C 352.800 387.765,353.520 386.859,354.400 385.952 C 355.280 385.045,356.000 384.055,356.000 383.752 C 356.000 383.448,356.180 383.200,356.400 383.200 C 356.620 383.200,356.800 382.840,356.800 382.400 C 356.800 381.960,356.947 381.600,357.126 381.600 C 357.524 381.600,358.800 378.999,358.800 378.186 C 358.800 377.864,358.960 377.600,359.156 377.600 C 359.352 377.600,359.614 377.015,359.737 376.300 C 360.258 373.288,360.510 372.400,360.845 372.400 C 361.040 372.400,361.200 371.500,361.200 370.400 C 361.200 369.300,361.380 368.400,361.600 368.400 C 361.866 368.400,362.000 312.000,362.000 200.000 C 362.000 88.000,361.866 31.600,361.600 31.600 C 361.380 31.600,361.200 30.700,361.200 29.600 C 361.200 28.500,361.020 27.600,360.800 27.600 C 360.580 27.600,360.400 27.071,360.400 26.424 C 360.400 25.777,360.220 25.136,360.000 25.000 C 359.780 24.864,359.600 24.223,359.600 23.576 C 359.600 22.929,359.420 22.400,359.200 22.400 C 358.980 22.400,358.800 22.136,358.800 21.814 C 358.800 21.001,357.524 18.400,357.126 18.400 C 356.947 18.400,356.800 18.040,356.800 17.600 C 356.800 17.160,356.620 16.800,356.400 16.800 C 356.180 16.800,356.000 16.552,356.000 16.248 C 356.000 15.945,355.280 14.955,354.400 14.048 C 353.520 13.141,352.800 12.255,352.800 12.078 C 352.800 11.580,350.221 9.200,349.681 9.200 C 349.416 9.200,349.200 9.020,349.200 8.800 C 349.200 8.580,349.020 8.400,348.800 8.400 C 348.581 8.400,347.659 7.680,346.752 6.800 C 345.845 5.920,344.855 5.200,344.552 5.200 C 344.248 5.200,344.000 5.020,344.000 4.800 C 344.000 4.580,343.640 4.400,343.200 4.400 C 342.760 4.400,342.400 4.254,342.400 4.075 C 342.400 3.896,341.770 3.502,341.000 3.200 C 340.230 2.898,339.600 2.504,339.600 2.325 C 339.600 2.146,339.060 2.000,338.400 2.000 C 337.740 2.000,337.200 1.820,337.200 1.600 C 337.200 1.380,336.675 1.200,336.033 1.200 C 335.392 1.200,334.792 0.975,334.700 0.700 C 334.483 0.049,179.805 -0.255,179.404 0.394 M204.284 21.516 C 206.749 23.274,207.206 24.357,207.618 29.415 C 208.111 35.466,210.020 38.445,214.360 39.934 C 217.157 40.893,292.059 40.568,294.104 39.587 C 298.549 37.455,300.000 34.877,300.000 29.109 C 300.000 20.764,300.190 20.641,313.269 20.475 C 331.393 20.245,336.764 22.652,340.213 32.547 C 341.107 35.116,341.079 364.966,340.183 367.537 C 338.246 373.100,334.307 377.001,328.800 378.809 C 326.082 379.701,181.518 379.701,178.800 378.809 C 173.359 377.022,169.822 373.501,167.541 367.600 C 167.089 366.431,167.000 338.749,167.000 200.000 C 167.000 61.251,167.089 33.569,167.541 32.400 C 169.981 26.089,173.925 22.505,180.139 20.953 C 184.122 19.959,202.708 20.392,204.284 21.516 M74.519 21.762 C 73.815 22.018,73.110 22.357,72.953 22.514 C 72.795 22.671,72.414 22.800,72.105 22.800 C 69.424 22.800,63.810 29.048,61.971 34.078 C 60.932 36.922,60.773 85.964,61.792 89.324 C 67.340 107.609,93.374 106.706,97.828 88.074 C 98.610 84.800,98.620 39.238,97.838 35.972 C 96.741 31.384,94.390 27.779,90.660 24.965 C 88.490 23.327,87.678 22.878,84.681 21.656 C 83.256 21.075,76.205 21.148,74.519 21.762 M83.200 56.748 C 88.211 60.384,86.011 67.997,79.949 67.999 C 74.403 68.002,71.619 61.940,75.260 57.792 C 77.233 55.546,80.882 55.066,83.200 56.748 " stroke="none" fill="#54564c" fill-rule="evenodd"></path><path id="path1" d="M66.500 0.289 C 65.785 0.378,65.200 0.619,65.200 0.825 C 65.200 1.031,64.761 1.200,64.224 1.200 C 63.687 1.200,63.136 1.380,63.000 1.600 C 62.864 1.820,62.223 2.000,61.576 2.000 C 60.929 2.000,60.400 2.136,60.400 2.302 C 60.400 2.469,59.815 2.859,59.100 3.170 C 58.385 3.481,57.710 3.840,57.600 3.968 C 57.248 4.376,55.626 5.200,55.174 5.200 C 54.934 5.200,54.076 5.875,53.269 6.700 C 52.461 7.525,51.350 8.436,50.800 8.723 C 49.207 9.557,48.262 10.466,46.855 12.515 C 46.132 13.568,45.194 14.647,44.770 14.911 C 44.347 15.176,44.000 15.709,44.000 16.096 C 44.000 16.483,43.820 16.800,43.600 16.800 C 43.380 16.800,43.200 17.160,43.200 17.600 C 43.200 18.040,43.038 18.400,42.840 18.400 C 42.642 18.400,42.157 19.300,41.761 20.400 C 41.366 21.500,40.898 22.400,40.721 22.400 C 40.544 22.400,40.400 22.940,40.400 23.600 C 40.400 24.260,40.220 24.800,40.000 24.800 C 39.780 24.800,39.600 25.419,39.600 26.176 C 39.600 26.933,39.420 27.664,39.200 27.800 C 38.980 27.936,38.800 28.847,38.800 29.824 C 38.800 30.801,38.620 31.600,38.400 31.600 C 37.845 31.600,37.845 367.857,38.400 368.200 C 38.620 368.336,38.800 369.337,38.800 370.424 C 38.800 371.511,38.980 372.400,39.200 372.400 C 39.420 372.400,39.600 373.030,39.600 373.800 C 39.600 374.570,39.780 375.200,40.000 375.200 C 40.220 375.200,40.400 375.740,40.400 376.400 C 40.400 377.060,40.580 377.600,40.800 377.600 C 41.020 377.600,41.200 377.849,41.200 378.154 C 41.200 379.015,42.245 380.822,42.561 380.506 C 42.715 380.351,42.724 380.534,42.578 380.912 C 42.427 381.307,42.503 381.600,42.757 381.600 C 43.001 381.600,43.200 381.945,43.200 382.367 C 43.200 382.788,43.366 383.193,43.570 383.267 C 43.773 383.340,43.998 383.670,44.070 383.999 C 44.141 384.329,44.669 385.049,45.243 385.599 C 45.816 386.150,46.715 387.230,47.239 388.000 C 48.381 389.676,49.909 391.081,50.982 391.443 C 51.413 391.588,52.434 392.402,53.251 393.253 C 54.068 394.104,54.934 394.800,55.174 394.800 C 55.626 394.800,57.248 395.624,57.600 396.032 C 57.710 396.160,58.385 396.519,59.100 396.830 C 59.815 397.141,60.400 397.531,60.400 397.698 C 60.400 397.864,60.929 398.000,61.576 398.000 C 62.223 398.000,62.864 398.180,63.000 398.400 C 63.136 398.620,63.672 398.800,64.190 398.800 C 64.709 398.800,65.208 399.025,65.300 399.300 C 65.432 399.696,77.021 399.813,121.233 399.863 C 151.905 399.898,176.460 399.779,175.800 399.600 C 168.430 397.592,163.795 395.254,159.200 391.228 C 158.430 390.554,157.706 390.001,157.591 390.001 C 156.503 389.996,148.400 377.889,148.400 376.268 C 148.400 375.834,147.709 373.551,147.169 372.200 C 146.994 371.760,146.719 370.680,146.559 369.800 C 146.178 367.708,146.178 32.292,146.559 30.200 C 146.719 29.320,146.999 28.240,147.181 27.800 C 147.364 27.360,147.809 26.010,148.172 24.800 C 148.975 22.119,152.360 15.935,154.115 13.941 C 154.822 13.138,155.854 11.968,156.410 11.341 C 160.136 7.132,167.158 2.926,173.600 1.048 L 177.000 0.056 122.400 0.092 C 92.370 0.112,67.215 0.201,66.500 0.289 M85.000 21.199 C 85.220 21.359,85.871 21.602,86.447 21.739 C 90.563 22.720,96.253 28.773,97.968 33.996 C 99.179 37.687,99.272 86.046,98.074 89.677 C 92.032 107.991,68.823 107.817,61.184 89.400 C 59.852 86.187,59.847 37.731,61.179 34.600 C 61.366 34.160,61.750 33.170,62.032 32.400 C 63.766 27.662,68.201 23.688,74.600 21.138 C 76.246 20.482,84.076 20.528,85.000 21.199 M77.000 56.886 C 73.002 59.195,73.591 65.987,77.892 67.174 C 84.070 68.880,88.170 61.636,83.299 57.621 C 81.685 56.291,78.646 55.936,77.000 56.886 M226.494 68.015 C 225.022 68.606,224.800 70.018,224.800 78.772 C 224.800 86.584,224.851 87.157,225.629 88.146 L 226.458 89.200 235.806 89.200 C 247.571 89.200,246.400 90.400,246.400 78.340 L 246.400 69.258 245.346 68.429 C 244.197 67.525,228.568 67.182,226.494 68.015 M226.904 145.071 C 224.971 145.467,224.800 146.328,224.800 155.635 C 224.800 163.787,224.848 164.354,225.629 165.346 L 226.458 166.400 235.806 166.400 C 247.569 166.400,246.400 167.595,246.400 155.573 C 246.400 143.933,247.435 145.018,236.259 144.944 C 231.607 144.913,227.397 144.970,226.904 145.071 M302.758 145.246 C 301.002 145.890,300.800 146.997,300.800 155.965 C 300.800 163.784,300.851 164.356,301.629 165.346 L 302.458 166.400 311.800 166.400 L 321.142 166.400 321.971 165.346 C 322.749 164.356,322.800 163.784,322.800 155.965 C 322.800 146.846,322.612 145.892,320.685 145.220 C 319.181 144.696,304.198 144.717,302.758 145.246 M193.300 145.498 C 195.665 145.569,199.535 145.569,201.900 145.498 C 204.265 145.428,202.330 145.370,197.600 145.370 C 192.870 145.370,190.935 145.428,193.300 145.498 M302.896 183.472 C 301.078 183.843,300.800 185.284,300.800 194.326 C 300.800 202.184,300.850 202.756,301.629 203.746 L 302.458 204.800 311.800 204.800 L 321.142 204.800 321.971 203.746 C 323.350 201.993,323.238 186.154,321.835 184.522 L 320.871 183.400 312.335 183.344 C 307.641 183.313,303.393 183.371,302.896 183.472 M321.029 184.571 C 321.490 185.033,321.600 186.884,321.600 194.200 C 321.600 201.516,321.490 203.367,321.029 203.829 C 320.225 204.632,303.756 204.645,302.700 203.843 C 301.801 203.161,301.619 185.599,302.500 184.598 C 303.239 183.759,320.192 183.735,321.029 184.571 M190.200 221.779 C 189.980 221.862,189.323 222.035,188.740 222.163 C 187.093 222.524,186.800 224.065,186.800 232.362 C 186.800 239.729,187.109 242.242,188.093 242.866 C 189.348 243.663,206.753 243.247,207.600 242.400 C 208.804 241.196,208.834 224.225,207.636 222.744 C 206.925 221.866,192.133 221.047,190.200 221.779 M301.629 341.454 C 300.250 343.208,300.362 359.046,301.765 360.678 L 302.731 361.800 311.800 361.800 L 320.869 361.800 321.835 360.678 C 323.358 358.907,323.344 342.908,321.818 341.382 L 320.836 340.400 311.647 340.400 L 302.458 340.400 301.629 341.454 " stroke="none" fill="#e9e8e6" fill-rule="evenodd"></path><path id="path2" d="M176.000 0.400 C 175.176 0.664,175.141 0.726,175.800 0.754 C 176.240 0.773,176.870 0.613,177.200 0.400 C 177.901 -0.053,177.414 -0.053,176.000 0.400 M75.505 21.083 C 76.002 21.179,76.722 21.175,77.105 21.075 C 77.487 20.975,77.080 20.896,76.200 20.901 C 75.320 20.905,75.007 20.987,75.505 21.083 M82.000 20.958 C 82.000 21.045,82.705 21.183,83.566 21.265 C 84.428 21.348,85.047 21.276,84.943 21.107 C 84.753 20.800,82.000 20.660,82.000 20.958 M180.800 21.605 C 176.521 22.314,173.078 24.336,170.934 27.400 C 169.471 29.490,168.400 31.598,168.400 32.389 C 168.400 32.809,168.220 33.264,168.000 33.400 C 167.734 33.564,167.600 89.530,167.600 200.000 C 167.600 310.470,167.734 366.436,168.000 366.600 C 168.220 366.736,168.400 367.191,168.400 367.611 C 168.400 368.802,170.963 373.100,172.447 374.400 C 174.826 376.483,176.322 377.317,179.200 378.167 C 181.821 378.941,327.395 379.165,328.163 378.397 C 328.381 378.179,328.867 378.000,329.242 378.000 C 332.623 378.000,338.242 372.082,339.831 366.847 C 340.575 364.396,340.692 35.985,339.950 33.628 C 338.113 27.800,332.745 22.000,329.186 22.000 C 328.780 22.000,328.336 21.820,328.200 21.600 C 328.044 21.347,323.386 21.200,315.546 21.200 L 303.138 21.200 302.028 22.311 C 300.964 23.374,300.909 23.626,300.718 28.262 C 300.441 34.993,298.900 37.937,294.596 39.960 C 292.587 40.904,214.775 41.330,214.200 40.400 C 214.064 40.180,213.603 40.000,213.176 40.000 C 212.749 40.000,212.399 39.865,212.397 39.700 C 212.396 39.535,211.880 39.107,211.250 38.749 C 208.510 37.190,206.800 32.960,206.800 27.742 C 206.800 24.723,206.193 23.417,204.175 22.094 C 202.745 21.156,185.664 20.799,180.800 21.605 M93.000 26.400 C 93.859 27.280,94.652 28.000,94.762 28.000 C 94.872 28.000,94.259 27.280,93.400 26.400 C 92.541 25.520,91.748 24.800,91.638 24.800 C 91.528 24.800,92.141 25.520,93.000 26.400 M146.249 31.815 C 146.112 32.173,146.015 32.766,146.034 33.133 C 146.053 33.500,146.227 33.269,146.421 32.620 C 146.798 31.358,146.665 30.733,146.249 31.815 M98.501 37.400 C 98.505 38.280,98.587 38.593,98.683 38.095 C 98.779 37.598,98.775 36.878,98.675 36.495 C 98.575 36.113,98.496 36.520,98.501 37.400 M60.243 39.833 C 59.863 40.821,60.014 83.302,60.400 84.200 C 60.597 84.659,60.756 75.251,60.772 62.100 C 60.787 49.505,60.729 39.200,60.643 39.200 C 60.556 39.200,60.376 39.485,60.243 39.833 M74.101 61.800 C 74.105 62.680,74.187 62.993,74.283 62.495 C 74.379 61.998,74.375 61.278,74.275 60.895 C 74.175 60.513,74.096 60.920,74.101 61.800 M245.346 68.429 L 246.400 69.258 246.400 78.340 C 246.400 90.400,247.571 89.200,235.806 89.200 L 226.458 89.200 225.629 88.146 C 224.704 86.970,224.348 71.641,225.194 69.415 C 225.802 67.817,226.781 67.653,235.846 67.625 C 243.806 67.601,244.353 67.648,245.346 68.429 M320.716 67.856 C 322.537 68.344,322.800 69.702,322.800 78.618 C 322.800 86.326,322.745 86.954,321.973 88.038 L 321.146 89.200 311.800 89.200 L 302.454 89.200 301.627 88.038 C 299.696 85.326,300.591 68.425,302.695 67.877 C 303.773 67.595,319.675 67.577,320.716 67.856 M207.040 68.306 C 208.207 69.086,208.400 70.541,208.400 78.588 C 208.400 85.500,208.296 86.987,207.754 87.814 L 207.108 88.800 197.781 88.800 L 188.454 88.800 187.627 87.638 C 186.389 85.900,186.364 71.319,187.596 69.300 L 188.388 68.000 197.494 68.006 C 202.502 68.009,206.798 68.144,207.040 68.306 M283.586 69.174 C 284.343 70.589,284.126 87.198,283.338 88.069 C 282.378 89.129,265.495 89.191,264.331 88.138 C 263.421 87.314,263.192 69.768,264.080 68.880 C 265.008 67.952,283.078 68.224,283.586 69.174 M98.509 86.400 C 98.509 87.390,98.587 87.795,98.682 87.300 C 98.778 86.805,98.778 85.995,98.682 85.500 C 98.587 85.005,98.509 85.410,98.509 86.400 M245.833 106.976 C 246.283 107.593,246.400 109.633,246.400 116.876 C 246.400 128.735,247.524 127.600,235.782 127.600 L 226.764 127.600 225.782 126.618 L 224.800 125.636 224.800 116.992 C 224.800 107.990,224.954 107.045,226.526 106.392 C 228.417 105.606,245.203 106.115,245.833 106.976 M321.819 107.058 C 323.238 108.590,323.365 124.774,321.971 126.546 L 321.142 127.600 311.800 127.600 L 302.458 127.600 301.629 126.546 C 300.848 125.553,300.800 124.989,300.800 116.728 L 300.800 107.964 301.782 106.982 L 302.764 106.000 311.801 106.000 L 320.838 106.000 321.819 107.058 M207.129 107.071 C 208.121 108.062,208.369 124.777,207.413 126.237 L 206.782 127.200 197.762 127.200 C 190.479 127.200,188.633 127.090,188.171 126.629 C 187.223 125.680,187.340 107.685,188.300 106.957 C 189.462 106.075,206.233 106.176,207.129 107.071 M283.777 107.289 C 284.294 108.027,284.400 109.644,284.400 116.800 C 284.400 128.326,285.547 127.200,273.800 127.200 C 262.053 127.200,263.200 128.326,263.200 116.800 C 263.200 105.274,262.053 106.400,273.800 106.400 C 283.013 106.400,283.164 106.413,283.777 107.289 M245.559 145.762 C 246.366 146.494,246.400 146.885,246.400 155.573 C 246.400 167.595,247.569 166.400,235.806 166.400 L 226.458 166.400 225.629 165.346 C 224.530 163.949,224.339 147.636,225.404 146.116 C 226.236 144.928,226.681 144.880,236.259 144.944 C 243.970 144.995,244.792 145.067,245.559 145.762 M283.559 145.762 C 284.720 146.814,284.879 164.408,283.738 165.669 C 283.133 166.337,282.278 166.400,273.800 166.400 C 261.971 166.400,263.043 167.317,262.872 157.059 C 262.709 147.257,262.847 146.278,264.518 145.438 C 266.566 144.410,282.363 144.679,283.559 145.762 M320.685 145.220 C 322.612 145.892,322.800 146.846,322.800 155.965 C 322.800 163.784,322.749 164.356,321.971 165.346 L 321.142 166.400 311.800 166.400 L 302.458 166.400 301.629 165.346 C 300.851 164.356,300.800 163.784,300.800 155.965 C 300.800 146.997,301.002 145.890,302.758 145.246 C 304.198 144.717,319.181 144.696,320.685 145.220 M207.636 146.344 C 209.468 148.609,208.575 165.387,206.582 166.152 C 205.079 166.728,189.028 166.396,188.200 165.771 C 186.540 164.518,186.831 146.296,188.522 145.593 C 190.690 144.693,206.812 145.326,207.636 146.344 M283.729 184.071 C 284.735 185.078,284.743 202.958,283.738 204.069 C 282.822 205.080,265.125 205.171,263.800 204.171 C 263.050 203.605,262.992 203.022,262.879 194.865 C 262.751 185.639,262.951 184.242,264.494 183.604 C 266.214 182.892,282.958 183.299,283.729 184.071 M321.835 184.522 C 323.238 186.154,323.350 201.993,321.971 203.746 L 321.142 204.800 311.800 204.800 L 302.458 204.800 301.629 203.746 C 300.539 202.361,300.348 186.835,301.396 184.809 C 302.174 183.302,302.357 183.278,312.335 183.344 L 320.871 183.400 321.835 184.522 M207.571 184.654 C 208.351 185.645,208.400 186.214,208.400 194.210 C 208.400 205.570,209.360 204.564,198.374 204.723 C 189.190 204.856,188.127 204.682,187.300 202.911 C 186.383 200.947,186.620 186.501,187.596 184.900 L 188.388 183.600 197.565 183.600 L 206.742 183.600 207.571 184.654 M245.300 184.157 C 246.335 184.943,246.371 203.193,245.340 204.051 C 244.073 205.104,227.630 205.053,226.281 203.992 L 225.200 203.142 225.200 194.246 C 225.200 182.521,224.137 183.596,235.716 183.613 C 242.469 183.622,244.768 183.753,245.300 184.157 M207.636 222.744 C 208.834 224.225,208.804 241.196,207.600 242.400 C 206.753 243.247,189.348 243.663,188.093 242.866 C 187.109 242.242,186.800 239.729,186.800 232.362 C 186.800 224.065,187.093 222.524,188.740 222.163 C 189.323 222.035,189.980 221.862,190.200 221.779 C 192.133 221.047,206.925 221.866,207.636 222.744 M283.559 222.562 C 284.720 223.614,284.879 241.208,283.738 242.469 C 283.133 243.137,282.278 243.200,273.800 243.200 C 261.971 243.200,263.043 244.117,262.872 233.859 C 262.709 224.057,262.847 223.078,264.518 222.238 C 266.566 221.210,282.363 221.479,283.559 222.562 M245.014 222.646 L 246.000 223.292 246.000 232.475 C 246.000 239.899,245.891 241.767,245.429 242.229 C 244.967 242.691,243.099 242.800,235.675 242.800 L 226.492 242.800 225.846 241.814 C 225.303 240.985,225.200 239.482,225.200 232.361 L 225.200 223.893 226.300 222.947 C 227.742 221.706,243.201 221.458,245.014 222.646 M245.340 341.149 C 246.371 342.007,246.335 360.257,245.300 361.043 C 244.003 362.027,227.013 361.813,226.000 360.800 C 225.015 359.815,224.770 342.798,225.723 341.547 C 226.680 340.289,243.886 339.941,245.340 341.149 M321.818 341.382 C 323.344 342.908,323.358 358.907,321.835 360.678 L 320.869 361.800 311.800 361.800 L 302.731 361.800 301.765 360.678 C 300.362 359.046,300.250 343.208,301.629 341.454 L 302.458 340.400 311.647 340.400 L 320.836 340.400 321.818 341.382 M207.413 341.763 C 208.472 343.380,208.112 360.132,207.000 360.971 C 205.799 361.877,189.782 361.883,188.489 360.977 C 187.436 360.240,187.064 342.296,188.080 341.280 C 188.425 340.935,191.118 340.800,197.671 340.800 L 206.782 340.800 207.413 341.763 M283.269 341.462 C 284.494 342.571,284.373 359.351,283.130 360.674 C 281.982 361.897,266.384 362.132,264.586 360.954 L 263.600 360.308 263.600 351.137 C 263.600 344.370,263.731 341.817,264.100 341.398 C 264.904 340.485,282.253 340.543,283.269 341.462 M146.006 367.033 C 146.009 367.455,146.195 368.070,146.418 368.400 C 146.715 368.838,146.752 368.676,146.556 367.800 C 146.227 366.329,145.998 366.010,146.006 367.033 " stroke="none" fill="#a4dbf3" fill-rule="evenodd"></path><path id="path3" d="M301.782 106.982 L 300.800 107.964 300.800 116.728 C 300.800 124.989,300.848 125.553,301.629 126.546 L 302.458 127.600 311.800 127.600 L 321.142 127.600 321.971 126.546 C 323.365 124.774,323.238 108.590,321.819 107.058 L 320.838 106.000 311.801 106.000 L 302.764 106.000 301.782 106.982 M187.949 146.261 C 187.520 146.779,187.400 148.879,187.400 155.897 C 187.400 167.440,186.378 166.404,197.744 166.387 C 206.598 166.374,206.989 166.303,207.935 164.526 C 208.688 163.113,208.566 148.282,207.790 146.780 L 207.179 145.600 197.839 145.600 C 189.638 145.600,188.431 145.681,187.949 146.261 M264.494 183.604 C 262.941 184.247,262.738 185.655,262.873 194.880 C 262.992 203.018,263.050 203.605,263.800 204.171 C 265.125 205.171,282.822 205.080,283.738 204.069 C 284.685 203.022,284.714 185.449,283.771 184.200 C 283.098 183.309,266.451 182.794,264.494 183.604 M302.500 184.598 C 301.619 185.599,301.801 203.161,302.700 203.843 C 303.756 204.645,320.225 204.632,321.029 203.829 C 321.490 203.367,321.600 201.516,321.600 194.200 C 321.600 186.884,321.490 185.033,321.029 184.571 C 320.192 183.735,303.239 183.759,302.500 184.598 " stroke="none" fill="#f37c40" fill-rule="evenodd"></path><path id="path4" d="M177.200 0.400 C 176.743 0.695,176.905 0.789,177.876 0.794 C 178.578 0.797,179.264 0.620,179.400 0.400 C 179.717 -0.113,177.993 -0.113,177.200 0.400 M171.400 2.000 C 170.896 2.217,170.822 2.344,171.200 2.344 C 171.530 2.344,172.160 2.189,172.600 2.000 C 173.104 1.783,173.178 1.656,172.800 1.656 C 172.470 1.656,171.840 1.811,171.400 2.000 M163.126 5.961 C 162.119 6.599,161.164 7.334,161.003 7.594 C 160.843 7.854,161.721 7.396,162.956 6.577 C 164.943 5.258,165.489 4.800,165.078 4.800 C 165.011 4.800,164.133 5.322,163.126 5.961 M158.157 9.912 C 155.984 11.879,152.688 15.825,151.640 17.712 C 150.236 20.240,150.707 19.958,152.434 17.237 C 153.328 15.827,155.447 13.262,157.142 11.537 C 160.406 8.215,160.896 7.432,158.157 9.912 M149.407 21.987 C 148.853 23.079,148.415 24.294,148.434 24.687 C 148.457 25.165,148.569 25.071,148.774 24.400 C 148.942 23.850,149.470 22.635,149.948 21.700 C 150.425 20.765,150.726 20.000,150.615 20.000 C 150.504 20.000,149.960 20.894,149.407 21.987 M180.139 20.953 C 173.925 22.505,169.981 26.089,167.541 32.400 C 167.089 33.569,167.000 61.251,167.000 200.000 C 167.000 338.749,167.089 366.431,167.541 367.600 C 169.822 373.501,173.359 377.022,178.800 378.809 C 181.518 379.701,326.082 379.701,328.800 378.809 C 334.307 377.001,338.246 373.100,340.183 367.537 C 341.079 364.966,341.107 35.116,340.213 32.547 C 336.764 22.652,331.393 20.245,313.269 20.475 C 300.190 20.641,300.000 20.764,300.000 29.109 C 300.000 34.877,298.549 37.455,294.104 39.587 C 292.059 40.568,217.157 40.893,214.360 39.934 C 210.020 38.445,208.111 35.466,207.618 29.415 C 207.206 24.357,206.749 23.274,204.284 21.516 C 202.708 20.392,184.122 19.959,180.139 20.953 M78.707 21.090 C 79.426 21.179,80.506 21.177,81.107 21.086 C 81.708 20.995,81.120 20.922,79.800 20.924 C 78.480 20.926,77.988 21.001,78.707 21.090 M204.175 22.094 C 206.193 23.417,206.800 24.723,206.800 27.742 C 206.800 32.960,208.510 37.190,211.250 38.749 C 211.880 39.107,212.396 39.535,212.397 39.700 C 212.399 39.865,212.749 40.000,213.176 40.000 C 213.603 40.000,214.064 40.180,214.200 40.400 C 214.775 41.330,292.587 40.904,294.596 39.960 C 298.900 37.937,300.441 34.993,300.718 28.262 C 300.909 23.626,300.964 23.374,302.028 22.311 L 303.138 21.200 315.546 21.200 C 323.386 21.200,328.044 21.347,328.200 21.600 C 328.336 21.820,328.780 22.000,329.186 22.000 C 332.745 22.000,338.113 27.800,339.950 33.628 C 340.692 35.985,340.575 364.396,339.831 366.847 C 338.242 372.082,332.623 378.000,329.242 378.000 C 328.867 378.000,328.381 378.179,328.163 378.397 C 327.395 379.165,181.821 378.941,179.200 378.167 C 176.322 377.317,174.826 376.483,172.447 374.400 C 170.963 373.100,168.400 368.802,168.400 367.611 C 168.400 367.191,168.220 366.736,168.000 366.600 C 167.734 366.436,167.600 310.470,167.600 200.000 C 167.600 89.530,167.734 33.564,168.000 33.400 C 168.220 33.264,168.400 32.809,168.400 32.389 C 168.400 31.347,170.762 27.227,172.187 25.781 C 173.115 24.840,176.527 22.705,177.722 22.318 C 182.207 20.865,202.044 20.697,204.175 22.094 M69.393 23.856 C 66.407 25.835,62.391 30.561,62.405 32.078 C 62.407 32.365,62.830 31.864,63.344 30.965 C 64.949 28.159,66.108 26.812,68.391 25.099 C 71.900 22.467,72.371 21.881,69.393 23.856 M88.000 22.910 C 88.000 22.970,89.057 23.789,90.350 24.731 C 93.112 26.742,94.946 28.914,96.471 31.980 C 97.078 33.201,97.581 33.969,97.587 33.687 C 97.611 32.732,95.693 29.411,94.030 27.526 C 92.052 25.282,88.000 22.181,88.000 22.910 M147.857 26.043 C 147.355 27.764,146.822 30.085,146.437 32.224 C 145.956 34.890,145.861 365.422,146.340 367.124 C 146.483 367.632,146.543 293.382,146.474 202.124 C 146.345 31.100,146.335 32.409,147.864 27.647 C 148.173 26.682,148.335 25.802,148.223 25.689 C 148.111 25.577,147.946 25.736,147.857 26.043 M61.755 33.500 C 61.634 33.885,61.370 34.613,61.167 35.119 C 60.552 36.659,60.706 87.495,61.332 89.293 C 62.130 91.583,62.472 91.586,61.792 89.297 C 61.009 86.660,61.084 36.284,61.874 34.100 C 62.132 33.385,62.261 32.800,62.160 32.800 C 62.058 32.800,61.876 33.115,61.755 33.500 M97.646 35.000 C 97.715 36.631,98.315 37.987,98.354 36.600 C 98.373 35.940,98.213 35.130,98.000 34.800 C 97.681 34.306,97.618 34.341,97.646 35.000 M98.587 61.800 C 98.587 74.560,98.638 79.838,98.700 73.529 C 98.762 67.219,98.762 56.779,98.700 50.329 C 98.638 43.878,98.587 49.040,98.587 61.800 M77.741 56.020 C 75.086 56.825,73.165 60.326,73.756 63.281 C 74.030 64.651,75.790 67.200,76.462 67.200 C 76.693 67.200,76.333 66.574,75.661 65.809 C 70.822 60.297,78.539 52.619,83.714 57.794 C 87.831 61.911,84.474 68.316,78.659 67.439 C 77.490 67.262,77.177 67.307,77.600 67.588 C 78.545 68.217,81.266 68.066,82.792 67.299 C 89.415 63.972,84.883 53.852,77.741 56.020 M302.695 67.877 C 300.591 68.425,299.696 85.326,301.627 88.038 L 302.454 89.200 311.800 89.200 L 321.146 89.200 321.973 88.038 C 322.745 86.954,322.800 86.326,322.800 78.618 C 322.800 69.702,322.537 68.344,320.716 67.856 C 319.675 67.577,303.773 67.595,302.695 67.877 M187.596 69.300 C 186.364 71.319,186.389 85.900,187.627 87.638 L 188.454 88.800 197.781 88.800 L 207.108 88.800 207.754 87.814 C 208.563 86.580,208.721 70.957,207.940 69.474 C 207.187 68.043,206.967 68.012,197.494 68.006 L 188.388 68.000 187.596 69.300 M264.080 68.880 C 263.192 69.768,263.421 87.314,264.331 88.138 C 265.495 89.191,282.378 89.129,283.338 88.069 C 284.126 87.198,284.343 70.589,283.586 69.174 C 283.078 68.224,265.008 67.952,264.080 68.880 M97.822 87.822 C 97.672 88.625,97.638 89.372,97.748 89.482 C 97.858 89.592,98.072 89.025,98.222 88.222 C 98.373 87.419,98.406 86.673,98.296 86.563 C 98.186 86.453,97.973 87.019,97.822 87.822 M96.706 91.458 C 96.332 92.284,96.097 93.030,96.183 93.117 C 96.428 93.361,97.665 90.796,97.517 90.352 C 97.445 90.135,97.080 90.633,96.706 91.458 M62.408 92.000 C 62.409 93.537,69.231 100.850,70.597 100.779 C 70.819 100.767,70.550 100.454,70.000 100.083 C 67.866 98.641,64.653 95.309,63.557 93.400 C 62.925 92.300,62.408 91.670,62.408 92.000 M95.095 94.511 C 94.029 96.138,91.453 98.501,89.038 100.068 C 87.739 100.911,86.849 101.600,87.060 101.600 C 88.460 101.600,94.485 96.483,95.652 94.302 C 96.194 93.290,95.798 93.438,95.095 94.511 M71.200 101.010 C 71.200 102.317,81.182 103.773,83.400 102.789 C 83.906 102.564,83.209 102.521,81.502 102.672 C 78.686 102.921,74.662 102.310,72.720 101.340 C 71.555 100.758,71.200 100.681,71.200 101.010 M226.526 106.392 C 224.954 107.045,224.800 107.990,224.800 116.992 L 224.800 125.636 225.782 126.618 L 226.764 127.600 235.782 127.600 C 247.524 127.600,246.400 128.735,246.400 116.876 C 246.400 109.633,246.283 107.593,245.833 106.976 C 245.203 106.115,228.417 105.606,226.526 106.392 M188.300 106.957 C 187.340 107.685,187.223 125.680,188.171 126.629 C 188.633 127.090,190.479 127.200,197.762 127.200 L 206.782 127.200 207.413 126.237 C 208.369 124.777,208.121 108.062,207.129 107.071 C 206.233 106.176,189.462 106.075,188.300 106.957 M263.823 107.289 C 263.306 108.027,263.200 109.644,263.200 116.800 C 263.200 128.326,262.053 127.200,273.800 127.200 C 285.547 127.200,284.400 128.326,284.400 116.800 C 284.400 105.274,285.547 106.400,273.800 106.400 C 264.587 106.400,264.436 106.413,263.823 107.289 M264.518 145.438 C 262.847 146.278,262.709 147.257,262.872 157.059 C 263.043 167.317,261.971 166.400,273.800 166.400 C 282.278 166.400,283.133 166.337,283.738 165.669 C 284.879 164.408,284.720 146.814,283.559 145.762 C 282.363 144.679,266.566 144.410,264.518 145.438 M187.596 184.900 C 186.620 186.501,186.383 200.947,187.300 202.911 C 188.127 204.682,189.190 204.856,198.374 204.723 C 209.360 204.564,208.400 205.570,208.400 194.210 C 208.400 186.214,208.351 185.645,207.571 184.654 L 206.742 183.600 197.565 183.600 L 188.388 183.600 187.596 184.900 M226.016 184.475 C 225.245 185.302,225.200 185.847,225.200 194.246 L 225.200 203.142 226.281 203.992 C 227.630 205.053,244.073 205.104,245.340 204.051 C 246.371 203.193,246.335 184.943,245.300 184.157 C 243.926 183.114,227.024 183.393,226.016 184.475 M264.518 222.238 C 262.847 223.078,262.709 224.057,262.872 233.859 C 263.043 244.117,261.971 243.200,273.800 243.200 C 282.278 243.200,283.133 243.137,283.738 242.469 C 284.879 241.208,284.720 223.614,283.559 222.562 C 282.363 221.479,266.566 221.210,264.518 222.238 M226.300 222.947 L 225.200 223.893 225.200 232.361 C 225.200 239.482,225.303 240.985,225.846 241.814 L 226.492 242.800 235.675 242.800 C 243.099 242.800,244.967 242.691,245.429 242.229 C 245.891 241.767,246.000 239.899,246.000 232.475 L 246.000 223.292 245.014 222.646 C 243.201 221.458,227.742 221.706,226.300 222.947 M227.010 340.679 C 225.341 341.132,225.226 341.800,225.213 351.100 C 225.201 359.476,225.247 360.047,226.000 360.800 C 227.013 361.813,244.003 362.027,245.300 361.043 C 246.335 360.257,246.371 342.007,245.340 341.149 C 244.667 340.590,228.834 340.184,227.010 340.679 M188.080 341.280 C 187.064 342.296,187.436 360.240,188.489 360.977 C 189.782 361.883,205.799 361.877,207.000 360.971 C 208.112 360.132,208.472 343.380,207.413 341.763 L 206.782 340.800 197.671 340.800 C 191.118 340.800,188.425 340.935,188.080 341.280 M264.100 341.398 C 263.731 341.817,263.600 344.370,263.600 351.137 L 263.600 360.308 264.586 360.954 C 266.384 362.132,281.982 361.897,283.130 360.674 C 284.373 359.351,284.494 342.571,283.269 341.462 C 282.253 340.543,264.904 340.485,264.100 341.398 M147.002 369.800 C 147.224 372.125,147.646 373.981,148.003 374.202 C 148.174 374.308,148.138 373.721,147.923 372.897 C 147.708 372.074,147.378 370.680,147.190 369.800 L 146.849 368.200 147.002 369.800 M148.434 375.304 C 148.394 376.122,149.912 379.498,150.476 379.847 C 150.687 379.977,150.459 379.300,149.969 378.342 C 149.480 377.384,148.942 376.150,148.774 375.600 C 148.574 374.946,148.457 374.844,148.434 375.304 M150.800 380.521 C 150.800 381.034,152.491 383.823,153.273 384.600 C 153.716 385.040,153.404 384.320,152.581 383.000 C 150.893 380.296,150.800 380.166,150.800 380.521 M154.000 385.725 C 154.000 385.794,154.573 386.379,155.274 387.025 L 156.549 388.200 155.574 386.922 C 154.747 385.837,154.000 385.269,154.000 385.725 M157.800 389.830 C 160.950 392.588,162.400 393.660,162.400 393.234 C 162.400 392.995,162.265 392.800,162.100 392.800 C 161.801 392.799,160.566 391.799,158.111 389.570 C 157.402 388.927,156.682 388.407,156.511 388.415 C 156.340 388.423,156.920 389.060,157.800 389.830 M163.020 393.959 C 163.729 394.628,169.651 397.682,169.851 397.482 C 169.960 397.373,169.004 396.782,167.725 396.169 C 166.446 395.556,164.922 394.728,164.338 394.328 C 163.241 393.575,162.350 393.326,163.020 393.959 M171.200 398.000 C 171.530 398.213,172.070 398.388,172.400 398.388 C 172.933 398.388,172.933 398.345,172.400 398.000 C 172.070 397.787,171.530 397.612,171.200 397.612 C 170.667 397.612,170.667 397.655,171.200 398.000 M177.000 399.600 C 178.176 400.106,179.982 400.106,179.200 399.600 C 178.870 399.387,178.060 399.222,177.400 399.234 C 176.370 399.253,176.313 399.305,177.000 399.600 " stroke="none" fill="#8d908e" fill-rule="evenodd"></path></g></svg>