<svg id="svg" version="1.1" xmlns="http://www.w3.org/2000/svg" xmlns:xlink="http://www.w3.org/1999/xlink" width="400" height="400" viewBox="0, 0, 400,400"><g id="svgg"><path id="path0" d="M113.800 0.290 C 112.920 0.380,112.029 0.621,111.820 0.827 C 111.611 1.032,110.936 1.200,110.320 1.200 C 109.704 1.200,109.200 1.380,109.200 1.600 C 109.200 1.820,108.660 2.000,108.000 2.000 C 107.340 2.000,106.800 2.180,106.800 2.400 C 106.800 2.620,106.440 2.800,106.000 2.800 C 105.560 2.800,105.200 2.980,105.200 3.200 C 105.200 3.420,104.857 3.600,104.438 3.600 C 103.622 3.600,100.288 5.201,100.067 5.700 C 99.993 5.865,99.678 6.000,99.367 6.000 C 99.055 6.000,98.800 6.180,98.800 6.400 C 98.800 6.620,98.480 6.800,98.088 6.800 C 97.697 6.800,97.117 7.160,96.800 7.600 C 96.483 8.040,95.970 8.400,95.660 8.400 C 94.697 8.400,85.600 16.747,85.600 17.631 C 85.600 17.838,85.060 18.572,84.400 19.263 C 83.740 19.954,83.200 20.722,83.200 20.971 C 83.200 21.220,82.840 21.683,82.400 22.000 C 81.960 22.317,81.600 22.897,81.600 23.288 C 81.600 23.680,81.420 24.000,81.200 24.000 C 80.980 24.000,80.800 24.345,80.800 24.767 C 80.800 25.188,80.665 25.593,80.500 25.667 C 80.013 25.883,77.600 30.848,77.600 31.633 C 77.600 32.029,77.420 32.464,77.200 32.600 C 76.980 32.736,76.800 33.276,76.800 33.800 C 76.800 34.324,76.644 34.849,76.453 34.967 C 76.262 35.085,75.995 35.951,75.859 36.891 C 75.724 37.831,75.441 39.500,75.230 40.600 C 74.710 43.321,74.710 356.679,75.230 359.400 C 75.441 360.500,75.724 362.169,75.859 363.109 C 75.995 364.049,76.262 364.915,76.453 365.033 C 76.644 365.151,76.800 365.676,76.800 366.200 C 76.800 366.724,76.980 367.264,77.200 367.400 C 77.420 367.536,77.599 367.952,77.597 368.324 C 77.594 368.930,80.674 375.508,81.191 376.000 C 81.307 376.110,81.656 376.695,81.968 377.300 C 82.280 377.905,82.685 378.400,82.868 378.400 C 83.050 378.400,83.200 378.643,83.200 378.941 C 83.200 379.238,83.740 380.046,84.400 380.737 C 85.060 381.428,85.600 382.162,85.600 382.369 C 85.600 383.253,94.697 391.600,95.660 391.600 C 95.970 391.600,96.483 391.960,96.800 392.400 C 97.117 392.840,97.697 393.200,98.088 393.200 C 98.480 393.200,98.800 393.380,98.800 393.600 C 98.800 393.820,99.070 394.000,99.400 394.000 C 99.730 394.000,100.000 394.180,100.000 394.400 C 100.000 394.620,100.270 394.800,100.600 394.800 C 100.930 394.800,101.200 394.980,101.200 395.200 C 101.200 395.420,101.549 395.600,101.976 395.600 C 102.403 395.600,102.864 395.780,103.000 396.000 C 103.136 396.220,103.687 396.400,104.224 396.400 C 104.761 396.400,105.200 396.580,105.200 396.800 C 105.200 397.020,105.560 397.200,106.000 397.200 C 106.440 397.200,106.800 397.380,106.800 397.600 C 106.800 397.820,107.340 398.000,108.000 398.000 C 108.660 398.000,109.200 398.180,109.200 398.400 C 109.200 398.620,109.815 398.800,110.567 398.800 C 111.318 398.800,112.008 399.025,112.100 399.300 C 112.233 399.698,130.152 399.800,199.913 399.800 C 269.497 399.800,287.663 399.697,288.060 399.300 C 288.335 399.025,289.053 398.800,289.656 398.800 C 290.259 398.800,290.864 398.620,291.000 398.400 C 291.136 398.180,291.687 398.000,292.224 398.000 C 292.761 398.000,293.200 397.820,293.200 397.600 C 293.200 397.380,293.560 397.200,294.000 397.200 C 294.440 397.200,294.800 397.020,294.800 396.800 C 294.800 396.580,295.340 396.400,296.000 396.400 C 296.660 396.400,297.200 396.220,297.200 396.000 C 297.200 395.780,297.560 395.600,298.000 395.600 C 298.440 395.600,298.800 395.420,298.800 395.200 C 298.800 394.980,299.070 394.800,299.400 394.800 C 299.730 394.800,300.000 394.620,300.000 394.400 C 300.000 394.180,300.270 394.000,300.600 394.000 C 300.930 394.000,301.200 393.820,301.200 393.600 C 301.200 393.380,301.520 393.200,301.912 393.200 C 302.303 393.200,302.883 392.840,303.200 392.400 C 303.517 391.960,304.052 391.594,304.388 391.587 C 305.476 391.565,314.400 383.355,314.400 382.378 C 314.400 382.126,314.940 381.417,315.600 380.800 C 316.260 380.183,316.800 379.474,316.800 379.223 C 316.800 378.972,317.160 378.380,317.600 377.908 C 318.040 377.436,318.400 376.813,318.400 376.525 C 318.400 376.236,318.580 376.000,318.800 376.000 C 319.020 376.000,319.200 375.730,319.200 375.400 C 319.200 375.070,319.380 374.800,319.600 374.800 C 319.820 374.800,320.000 374.440,320.000 374.000 C 320.000 373.560,320.180 373.200,320.400 373.200 C 320.620 373.200,320.800 372.840,320.800 372.400 C 320.800 371.960,320.980 371.600,321.200 371.600 C 321.420 371.600,321.600 371.251,321.600 370.824 C 321.600 370.397,321.780 369.936,322.000 369.800 C 322.220 369.664,322.400 369.113,322.400 368.576 C 322.400 368.039,322.580 367.600,322.800 367.600 C 323.020 367.600,323.200 367.071,323.200 366.424 C 323.200 365.777,323.380 365.136,323.600 365.000 C 323.820 364.864,324.000 364.148,324.000 363.410 C 324.000 362.671,324.225 361.992,324.500 361.900 C 324.899 361.767,325.000 329.031,325.000 200.000 C 325.000 70.969,324.899 38.233,324.500 38.100 C 324.225 38.008,324.000 37.329,324.000 36.590 C 324.000 35.852,323.820 35.136,323.600 35.000 C 323.380 34.864,323.200 34.223,323.200 33.576 C 323.200 32.929,323.020 32.400,322.800 32.400 C 322.580 32.400,322.400 31.961,322.400 31.424 C 322.400 30.887,322.220 30.336,322.000 30.200 C 321.780 30.064,321.600 29.603,321.600 29.176 C 321.600 28.749,321.420 28.400,321.200 28.400 C 320.980 28.400,320.800 28.040,320.800 27.600 C 320.800 27.160,320.654 26.800,320.475 26.800 C 320.296 26.800,319.902 26.170,319.600 25.400 C 319.298 24.630,318.904 24.000,318.725 24.000 C 318.546 24.000,318.400 23.680,318.400 23.288 C 318.400 22.897,318.040 22.317,317.600 22.000 C 317.160 21.683,316.800 21.175,316.800 20.872 C 316.800 20.569,316.260 19.817,315.600 19.200 C 314.940 18.583,314.400 17.874,314.400 17.622 C 314.400 16.645,305.476 8.435,304.388 8.413 C 304.052 8.406,303.517 8.040,303.200 7.600 C 302.883 7.160,302.386 6.800,302.095 6.800 C 301.804 6.800,301.180 6.440,300.708 6.000 C 300.236 5.560,299.613 5.200,299.325 5.200 C 299.036 5.200,298.800 5.020,298.800 4.800 C 298.800 4.580,298.440 4.400,298.000 4.400 C 297.560 4.400,297.200 4.220,297.200 4.000 C 297.200 3.780,296.660 3.600,296.000 3.600 C 295.340 3.600,294.800 3.420,294.800 3.200 C 294.800 2.980,294.440 2.800,294.000 2.800 C 293.560 2.800,293.200 2.620,293.200 2.400 C 293.200 2.180,292.761 2.000,292.224 2.000 C 291.687 2.000,291.136 1.820,291.000 1.600 C 290.864 1.380,290.238 1.200,289.610 1.200 C 288.981 1.200,288.392 0.975,288.300 0.700 C 288.141 0.222,118.367 -0.177,113.800 0.290 M129.164 24.093 C 134.953 26.126,138.337 31.257,138.382 38.069 C 138.403 41.154,139.324 46.163,140.392 49.000 C 144.564 60.076,152.920 68.034,164.400 71.865 L 167.800 73.000 199.600 73.000 C 233.194 73.000,232.116 73.053,237.600 71.143 C 240.215 70.233,243.192 68.802,243.929 68.102 C 244.219 67.826,244.611 67.600,244.800 67.600 C 244.989 67.600,245.381 67.375,245.671 67.100 C 245.962 66.825,246.919 66.062,247.797 65.405 C 255.707 59.490,260.879 49.403,261.438 38.800 C 262.130 25.698,271.444 20.084,284.560 24.861 C 292.922 27.907,298.725 34.923,301.139 44.906 C 301.776 47.541,301.805 352.525,301.168 354.954 C 299.687 360.604,298.967 362.343,296.764 365.600 C 294.266 369.294,289.216 373.439,285.600 374.767 C 284.830 375.049,283.840 375.419,283.400 375.587 C 280.331 376.762,277.694 376.800,200.200 376.800 C 142.928 376.800,121.095 376.677,119.706 376.346 C 117.025 375.707,113.591 374.395,112.338 373.532 C 111.754 373.129,111.113 372.800,110.914 372.800 C 110.714 372.800,110.202 372.485,109.775 372.100 C 109.348 371.715,108.333 370.902,107.518 370.294 C 103.414 367.228,100.233 361.302,98.816 354.080 C 98.235 351.118,98.235 48.882,98.816 45.920 C 100.213 38.800,103.454 32.741,107.464 29.750 C 108.309 29.120,109.090 28.489,109.200 28.349 C 109.310 28.208,110.120 27.681,111.000 27.179 C 117.709 23.347,123.998 22.278,129.164 24.093 " stroke="none" fill="#103840" fill-rule="evenodd"></path><path id="path1" d="M167.200 313.989 C 134.340 314.199,134.192 314.204,132.400 315.070 C 130.231 316.119,128.021 318.357,126.742 320.800 L 125.800 322.600 125.687 349.450 L 125.573 376.300 199.817 376.600 C 247.342 376.791,274.200 376.760,274.447 376.513 C 274.689 376.271,274.789 366.168,274.716 349.364 L 274.600 322.600 273.617 320.617 C 272.366 318.094,270.306 316.034,267.783 314.783 L 265.800 313.800 233.000 313.789 C 214.960 313.783,185.350 313.873,167.200 313.989 " stroke="none" fill="#fb5b4c" fill-rule="evenodd"></path><path id="path2" d="M120.600 24.084 C 115.336 25.344,113.162 26.257,109.800 28.620 C 104.826 32.117,101.020 37.857,99.747 43.781 C 98.958 47.459,98.982 352.654,99.773 356.339 C 101.503 364.408,110.948 374.800,116.551 374.800 C 116.882 374.800,117.252 374.961,117.374 375.158 C 117.597 375.519,119.116 375.799,123.287 376.248 L 125.573 376.494 125.687 349.547 L 125.800 322.600 126.742 320.800 C 128.023 318.353,130.234 316.117,132.400 315.076 L 134.200 314.211 180.400 313.905 C 205.810 313.736,235.420 313.644,246.200 313.699 L 265.800 313.800 267.783 314.783 C 270.306 316.034,272.366 318.094,273.617 320.617 L 274.600 322.600 274.716 349.533 L 274.832 376.467 277.316 376.261 C 280.699 375.982,282.764 375.582,283.027 375.156 C 283.148 374.960,283.586 374.800,283.999 374.800 C 284.932 374.800,288.860 372.691,291.000 371.042 C 296.084 367.122,299.407 361.679,300.547 355.400 C 301.531 349.988,301.553 49.951,300.571 44.771 C 299.170 37.387,294.475 30.557,288.604 27.363 C 288.162 27.122,287.120 26.537,286.288 26.063 C 285.456 25.588,284.509 25.200,284.182 25.200 C 283.856 25.200,283.277 25.041,282.895 24.847 C 280.544 23.653,273.866 23.181,271.719 24.056 C 268.621 25.319,267.870 25.756,266.580 27.046 C 263.364 30.263,262.011 33.587,262.004 38.294 C 262.000 40.976,261.782 42.380,260.714 46.600 C 260.283 48.300,260.081 48.866,258.997 51.400 C 257.795 54.211,256.474 56.750,255.981 57.200 C 255.860 57.310,255.332 58.030,254.807 58.800 C 250.178 65.588,241.297 71.133,231.800 73.165 C 228.812 73.804,169.456 73.954,167.600 73.327 C 166.830 73.067,165.390 72.631,164.400 72.358 C 163.410 72.084,162.429 71.712,162.220 71.530 C 162.011 71.349,161.572 71.200,161.244 71.200 C 159.789 71.200,152.907 66.858,149.938 64.067 C 145.214 59.626,143.097 56.512,139.963 49.400 C 139.090 47.419,138.332 43.406,137.961 38.800 C 137.055 27.562,130.233 21.779,120.600 24.084 M265.172 100.461 C 269.370 101.818,271.665 103.604,273.467 106.916 L 274.600 109.000 274.600 168.600 C 274.600 225.055,274.562 228.281,273.883 229.727 C 272.821 231.991,270.085 234.757,267.835 235.843 L 265.850 236.800 200.544 236.800 C 152.563 236.800,134.941 236.679,134.119 236.344 C 131.124 235.123,130.496 234.742,129.142 233.325 C 128.341 232.486,127.261 230.990,126.742 230.000 L 125.800 228.200 125.800 168.600 L 125.800 109.000 126.743 107.200 C 128.029 104.746,129.816 102.933,132.200 101.664 L 134.200 100.600 167.200 100.391 C 235.641 99.958,263.675 99.978,265.172 100.461 " stroke="none" fill="#eae6e6" fill-rule="evenodd"></path><path id="path3" d="M118.530 24.010 C 116.952 24.418,114.972 25.092,114.130 25.508 C 112.040 26.542,109.443 28.038,109.200 28.349 C 109.090 28.489,108.309 29.120,107.464 29.750 C 105.182 31.452,100.291 38.424,100.930 39.064 C 101.033 39.166,101.603 38.257,102.197 37.042 C 106.535 28.176,119.739 21.649,128.166 24.205 C 132.081 25.393,134.519 27.424,136.462 31.117 C 137.088 32.307,137.600 33.016,137.600 32.691 C 137.600 31.542,135.520 28.402,133.637 26.709 C 129.926 23.373,124.646 22.429,118.530 24.010 M272.000 23.483 C 264.935 26.076,261.876 30.512,261.438 38.800 C 260.874 49.488,254.517 61.541,247.149 65.894 C 246.517 66.267,246.000 66.692,246.000 66.838 C 246.000 66.984,245.460 67.327,244.800 67.600 C 244.140 67.873,243.600 68.276,243.600 68.495 C 243.600 69.987,252.139 62.585,254.783 58.800 C 255.321 58.030,255.860 57.310,255.981 57.200 C 256.474 56.750,257.795 54.211,258.997 51.400 C 260.081 48.866,260.283 48.300,260.714 46.600 C 261.782 42.380,262.000 40.976,262.004 38.294 C 262.011 33.607,263.481 30.009,266.647 26.930 C 267.851 25.759,268.642 25.311,271.719 24.056 C 273.866 23.181,280.544 23.653,282.895 24.847 C 283.277 25.041,283.856 25.200,284.182 25.200 C 284.509 25.200,285.456 25.588,286.288 26.063 C 287.120 26.537,288.162 27.122,288.604 27.363 C 292.648 29.563,296.505 33.929,298.817 38.923 C 299.447 40.285,299.972 41.152,299.982 40.849 C 300.042 39.045,296.032 32.834,293.081 30.161 C 287.380 24.997,276.912 21.681,272.000 23.483 M137.857 37.200 C 138.266 44.829,141.319 54.737,144.019 57.200 C 144.140 57.310,144.672 58.030,145.202 58.800 C 149.830 65.523,158.708 71.202,167.800 73.258 C 170.373 73.839,229.637 73.857,231.206 73.276 C 231.616 73.124,217.518 73.000,199.876 73.000 L 167.800 73.000 164.400 71.865 C 148.958 66.712,138.521 53.080,138.372 37.869 C 138.356 36.291,138.188 34.640,137.999 34.200 C 137.790 33.717,137.734 34.905,137.857 37.200 M100.245 40.043 C 100.149 40.349,99.875 41.212,99.635 41.960 C 99.396 42.708,99.213 43.698,99.228 44.160 C 99.244 44.622,99.591 43.831,99.998 42.403 C 100.406 40.975,100.668 39.734,100.579 39.646 C 100.491 39.558,100.340 39.736,100.245 40.043 M300.027 41.600 C 300.012 41.710,300.270 43.211,300.600 44.935 C 301.505 49.665,301.510 350.308,300.605 355.037 C 300.278 356.746,300.090 358.223,300.186 358.319 C 300.282 358.416,300.468 357.978,300.599 357.347 C 300.729 356.716,301.008 355.549,301.218 354.754 C 301.799 352.552,301.732 47.371,301.150 44.906 C 300.712 43.053,300.082 41.196,300.027 41.600 M98.657 46.700 C 98.296 48.882,98.438 352.376,98.800 353.800 C 98.968 354.460,99.127 285.295,99.153 200.100 C 99.179 114.905,99.134 45.200,99.052 45.200 C 98.971 45.200,98.793 45.875,98.657 46.700 M237.600 71.098 C 236.610 71.448,235.995 71.798,236.234 71.878 C 236.473 71.958,237.463 71.670,238.434 71.240 C 240.559 70.297,240.094 70.218,237.600 71.098 M233.400 72.400 C 232.667 72.715,232.684 72.746,233.600 72.766 C 234.150 72.778,234.870 72.613,235.200 72.400 C 235.987 71.891,234.584 71.891,233.400 72.400 M200.099 168.700 L 200.200 236.600 232.800 236.600 L 265.400 236.600 267.634 235.502 C 270.243 234.220,272.009 232.415,273.285 229.727 L 274.200 227.800 274.200 168.600 C 274.200 114.168,274.146 109.287,273.533 108.000 C 272.130 105.054,270.503 103.314,267.968 102.047 L 265.472 100.800 232.735 100.800 L 199.998 100.800 200.099 168.700 M99.228 355.840 C 99.213 356.302,99.396 357.292,99.635 358.040 C 99.875 358.788,100.149 359.651,100.245 359.957 C 100.340 360.264,100.491 360.442,100.579 360.354 C 100.668 360.266,100.406 359.025,99.998 357.597 C 99.591 356.169,99.244 355.378,99.228 355.840 M298.963 360.887 C 296.119 367.205,287.951 374.800,283.999 374.800 C 283.586 374.800,283.148 374.960,283.027 375.156 C 282.776 375.562,281.023 375.912,277.000 376.359 L 274.200 376.671 276.494 376.735 C 278.621 376.795,281.489 376.318,283.400 375.587 C 283.840 375.419,284.830 375.049,285.600 374.767 C 289.216 373.439,294.266 369.294,296.764 365.600 C 298.328 363.289,300.158 359.625,299.885 359.352 C 299.797 359.264,299.382 359.954,298.963 360.887 M100.800 361.016 C 100.800 362.409,105.321 368.653,107.518 370.294 C 108.333 370.902,109.348 371.715,109.775 372.100 C 110.202 372.485,110.742 372.790,110.975 372.778 C 111.209 372.766,110.860 372.365,110.200 371.887 C 107.579 369.991,103.275 365.233,102.209 363.054 C 101.208 361.008,100.800 360.418,100.800 361.016 M112.301 373.480 C 113.306 374.289,116.805 375.640,119.706 376.340 C 121.089 376.674,132.385 376.774,160.906 376.706 L 200.200 376.611 160.400 376.381 C 133.480 376.225,120.082 376.009,119.000 375.713 C 116.158 374.934,115.011 374.523,113.189 373.631 C 111.780 372.941,111.591 372.909,112.301 373.480 " stroke="none" fill="#7dd2f0" fill-rule="evenodd"></path><path id="path4" d="M167.200 100.391 L 134.200 100.600 132.200 101.664 C 129.816 102.933,128.029 104.746,126.743 107.200 L 125.800 109.000 125.800 168.600 L 125.800 228.200 126.742 230.000 C 127.261 230.990,128.341 232.486,129.142 233.325 C 130.496 234.742,131.124 235.123,134.119 236.344 C 134.925 236.672,144.317 236.800,167.719 236.800 L 200.200 236.800 200.098 168.800 L 199.995 100.800 232.698 100.794 C 253.959 100.790,265.190 100.652,264.800 100.400 C 264.179 99.999,229.689 99.996,167.200 100.391 M267.968 102.047 C 270.503 103.314,272.130 105.054,273.533 108.000 C 274.146 109.287,274.200 114.168,274.200 168.600 L 274.200 227.800 273.285 229.727 C 271.590 233.298,268.558 235.697,264.815 236.431 C 263.407 236.707,263.406 236.708,264.625 236.754 C 267.496 236.862,272.217 233.279,273.883 229.727 C 274.562 228.281,274.600 225.055,274.600 168.600 L 274.600 109.000 273.498 106.977 C 271.839 103.929,268.103 100.800,266.124 100.800 C 265.765 100.800,266.595 101.361,267.968 102.047 " stroke="none" fill="#9cfbfb" fill-rule="evenodd"></path></g></svg>